<?xml version="1.0" encoding="UTF-8"?>
<svg version="1.1" xmlns="http://www.w3.org/2000/svg" width="128" height="128">
<path d="M0 0 C26.4 0 52.8 0 80 0 C80 4.95 80 9.9 80 15 C81.24136719 14.95359375 82.48273438 14.9071875 83.76171875 14.859375 C85.40362171 14.82184579 87.04555077 14.78544686 88.6875 14.75 C89.50412109 14.71648438 90.32074219 14.68296875 91.16210938 14.6484375 C95.26074824 14.58206278 97.43708461 14.65919224 101.01953125 16.828125 C104.50531014 20.65079377 104.14838274 24.52985124 104.14526367 29.42138672 C104.14862228 30.17457184 104.1519809 30.92775696 104.15544128 31.70376587 C104.16494665 34.19575649 104.16689423 36.68767988 104.16796875 39.1796875 C104.17118176 40.91220121 104.17454587 42.64471465 104.17805481 44.37722778 C104.18404514 48.01044341 104.18589482 51.64363525 104.18530273 55.27685547 C104.18520115 59.92962268 104.19884993 64.58223716 104.21607494 69.23496819 C104.22720062 72.8140635 104.22922176 76.39312198 104.22869301 79.97223282 C104.2298724 81.68741507 104.23429189 83.4025983 104.24202538 85.11776352 C104.25183613 87.51855878 104.24894293 89.91902349 104.24291992 92.31982422 C104.24853943 93.02649231 104.25415894 93.7331604 104.25994873 94.46124268 C104.22738184 99.57662895 103.68319806 103.31680194 100 107 C98.16500854 107.2784729 98.16500854 107.2784729 95.91748047 107.31884766 C95.07675995 107.33871735 94.23603943 107.35858704 93.36984253 107.37905884 C92.46146637 107.39061005 91.55309021 107.40216125 90.6171875 107.4140625 C89.22308151 107.44311172 89.22308151 107.44311172 87.80081177 107.4727478 C84.8256352 107.53263685 81.85042012 107.5789661 78.875 107.625 C76.86066 107.66317121 74.84633646 107.70222243 72.83203125 107.7421875 C67.88815425 107.838346 62.94420083 107.9223424 58 108 C58.99 112.29 59.98 116.58 61 121 C62.98 121 64.96 121 67 121 C67.66 122.32 68.32 123.64 69 125 C68 126 68 126 65.75376892 126.12025452 C64.76115555 126.11803391 63.76854218 126.11581329 62.74584961 126.11352539 C61.62476303 126.11344986 60.50367645 126.11337433 59.34861755 126.11329651 C57.51896202 126.10555458 57.51896202 126.10555458 55.65234375 126.09765625 C54.41078018 126.0962413 53.16921661 126.09482635 51.89002991 126.09336853 C48.58394509 126.08870591 45.27792854 126.07971497 41.97186279 126.06866455 C38.6003885 126.05844827 35.22890717 126.05387045 31.85742188 126.04882812 C25.23826225 126.03777395 18.61913507 126.02101736 12 126 C12 122 12 122 13 121 C14.98 121 16.96 121 19 121 C19.99 116.71 20.98 112.42 22 108 C20.74340576 107.98541748 19.48681152 107.97083496 18.19213867 107.95581055 C13.53462108 107.89788396 8.87758984 107.82065089 4.22045898 107.73754883 C2.20393765 107.7042729 0.18732258 107.67624932 -1.8293457 107.65356445 C-4.726481 107.62006744 -7.62275518 107.56775456 -10.51953125 107.51171875 C-11.42274612 107.50532883 -12.325961 107.4989389 -13.25654602 107.49235535 C-14.09719101 107.47256119 -14.937836 107.45276703 -15.80395508 107.43237305 C-16.54341873 107.42126999 -17.28288239 107.41016693 -18.04475403 107.39872742 C-20.5877362 106.88014473 -21.4469339 106.05799073 -23 104 C-24.44771072 100.33158137 -24.15498388 96.35470595 -24.16113281 92.46508789 C-24.16858017 91.33509117 -24.16858017 91.33509117 -24.17617798 90.18226624 C-24.19075673 87.69572022 -24.19759354 85.20923794 -24.203125 82.72265625 C-24.20887888 80.99157205 -24.21463659 79.26048786 -24.22039795 77.52940369 C-24.23089496 73.9021678 -24.23674649 70.27495401 -24.24023438 66.64770508 C-24.24572403 62.00274854 -24.26976748 57.3580844 -24.29820633 52.71321964 C-24.31683779 49.13841397 -24.32203852 45.56367878 -24.32357025 41.98882866 C-24.32659489 40.27642654 -24.33461709 38.56402561 -24.34775543 36.85167122 C-24.36483088 34.45565672 -24.36293257 32.06035748 -24.35644531 29.66430664 C-24.3656601 28.95920959 -24.37487488 28.25411255 -24.3843689 27.52764893 C-24.34751491 23.17731252 -23.6772538 20.45019149 -21 17 C-17.89914429 14.93276286 -17.27068319 14.75502577 -13.76953125 14.8046875 C-12.56586914 14.81435547 -12.56586914 14.81435547 -11.33789062 14.82421875 C-10.50451172 14.84097656 -9.67113281 14.85773437 -8.8125 14.875 C-7.5450293 14.88853516 -7.5450293 14.88853516 -6.25195312 14.90234375 C-4.16784757 14.92589297 -2.08388783 14.96176353 0 15 C0 10.05 0 5.1 0 0 Z M5 4 C5 7.63 5 11.26 5 15 C28.1 15 51.2 15 75 15 C75 11.37 75 7.74 75 4 C51.9 4 28.8 4 5 4 Z M-17 20 C-19.3770264 23.5655396 -19.24340923 25.07871361 -19.22705078 29.30737305 C-19.22689972 30.60849533 -19.22674866 31.90961761 -19.22659302 33.25016785 C-19.21637969 34.67068637 -19.2059477 36.09120333 -19.1953125 37.51171875 C-19.19158183 38.96474513 -19.18873511 40.41777403 -19.18673706 41.87080383 C-19.17910481 45.69311482 -19.15945992 49.51527354 -19.1373291 53.33752441 C-19.11686183 57.2386672 -19.10773346 61.13983461 -19.09765625 65.04101562 C-19.07621354 72.69408783 -19.04103484 80.34700317 -19 88 C-12.73 88 -6.46 88 0 88 C0 65.56 0 43.12 0 20 C-5.61 20 -11.22 20 -17 20 Z M5 20 C5 42.44 5 64.88 5 88 C28.1 88 51.2 88 75 88 C75 65.56 75 43.12 75 20 C51.9 20 28.8 20 5 20 Z M80 20 C80 42.44 80 64.88 80 88 C86.27 88 92.54 88 99 88 C99.04516427 79.57686274 99.08186615 71.15381945 99.10362434 62.73059368 C99.11406657 58.81945488 99.12823372 54.90840314 99.15087891 50.99731445 C99.17259173 47.22368831 99.18456532 43.45014596 99.18975449 39.67646217 C99.19345306 38.23593641 99.20067536 36.79541529 99.21146011 35.35492516 C99.22595347 33.33911986 99.22681674 31.32323044 99.22705078 29.30737305 C99.23371262 27.58528877 99.23371262 27.58528877 99.24050903 25.82841492 C99.21151589 22.79488167 99.21151589 22.79488167 97 20 C91.39 20 85.78 20 80 20 Z M-19 93 C-19.64715023 99.63019987 -19.64715023 99.63019987 -17 103 C-14.90659324 103.454616 -14.90659324 103.454616 -12.44506836 103.38095093 C-11.0064595 103.39364014 -11.0064595 103.39364014 -9.53878784 103.40658569 C-7.95531052 103.39747665 -7.95531052 103.39747665 -6.33984375 103.38818359 C-4.67636398 103.39606903 -4.67636398 103.39606903 -2.97927856 103.40411377 C0.70145585 103.41736171 4.38176088 103.40855848 8.0625 103.3984375 C10.61075931 103.40045685 13.15901806 103.40336712 15.70727539 103.40713501 C21.05393496 103.41156488 26.40043937 103.4053903 31.74707031 103.39111328 C37.93309897 103.37478584 44.11883102 103.38007406 50.30485249 103.3965925 C56.24971812 103.41183307 62.19449138 103.41023749 68.13937378 103.4014473 C70.67202801 103.39944031 73.20468976 103.40192191 75.73733521 103.40888596 C79.27171125 103.41647072 82.80551085 103.40493749 86.33984375 103.38818359 C87.3954953 103.39425629 88.45114685 103.40032898 89.53878784 103.40658569 C90.49786041 103.39812622 91.45693298 103.38966675 92.44506836 103.38095093 C93.28130234 103.37981985 94.11753632 103.37868877 94.97911072 103.37752342 C95.64600418 103.25294069 96.31289764 103.12835796 97 103 C99.64715023 99.63019987 99.64715023 99.63019987 99 93 C60.06 93 21.12 93 -19 93 Z M28 108 C25.04134491 116.25579159 25.04134491 116.25579159 24 122 C34.56 122 45.12 122 56 122 C54.515 115.07 54.515 115.07 53 108 C44.75 108 36.5 108 28 108 Z " fill="#8D56FF" transform="translate(24,1)"/>
<path d="M0 0 C0.80695312 -0.00322266 1.61390625 -0.00644531 2.4453125 -0.00976562 C9.52070675 0.05445 9.52070675 0.05445 13 2.3125 C14.17245774 5.82987321 14.13266285 8.6700132 14.125 12.375 C14.12886719 14.24865234 14.12886719 14.24865234 14.1328125 16.16015625 C14 19.3125 14 19.3125 13 21.3125 C8.85418113 21.34136751 4.70838784 21.35925327 0.5625 21.375 C-1.21350586 21.38756836 -1.21350586 21.38756836 -3.02539062 21.40039062 C-4.15009766 21.40361328 -5.27480469 21.40683594 -6.43359375 21.41015625 C-7.99678345 21.41801147 -7.99678345 21.41801147 -9.59155273 21.42602539 C-12 21.3125 -12 21.3125 -13 20.3125 C-13.18023553 17.50555317 -13.27807437 14.74663173 -13.3125 11.9375 C-13.34150391 11.15632813 -13.37050781 10.37515625 -13.40039062 9.5703125 C-13.46289977 3.95410638 -13.46289977 3.95410638 -11.54296875 1.29296875 C-7.69699155 -0.18988882 -4.0844688 -0.08155888 0 0 Z M-8 5.3125 C-8 8.9425 -8 12.5725 -8 16.3125 C-7.67 16.3125 -7.34 16.3125 -7 16.3125 C-6.67 14.6625 -6.34 13.0125 -6 11.3125 C-5.01 11.3125 -4.02 11.3125 -3 11.3125 C-2.67 12.9625 -2.34 14.6125 -2 16.3125 C-0.68 16.3125 0.64 16.3125 2 16.3125 C2.33 14.6625 2.66 13.0125 3 11.3125 C3.99 11.3125 4.98 11.3125 6 11.3125 C6.33 12.9625 6.66 14.6125 7 16.3125 C7.33 16.3125 7.66 16.3125 8 16.3125 C8 12.6825 8 9.0525 8 5.3125 C2.72 5.3125 -2.56 5.3125 -8 5.3125 Z " fill="#8E56FF" transform="translate(44,40.6875)"/>
<path d="M0 0 C1.98 0.495 1.98 0.495 4 1 C4 19.48 4 37.96 4 57 C2.02 57.495 2.02 57.495 0 58 C-1.70565618 56.29434382 -1.12752055 54.09266505 -1.12939453 51.76171875 C-1.13254669 50.64385986 -1.13569885 49.52600098 -1.13894653 48.37426758 C-1.1369223 47.15763428 -1.13489807 45.94100098 -1.1328125 44.6875 C-1.13376923 43.44830811 -1.13472595 42.20911621 -1.13571167 40.93237305 C-1.13639374 38.30611719 -1.13503538 35.67995367 -1.13037109 33.05371094 C-1.12467381 29.68071286 -1.12795302 26.30779435 -1.13394356 22.93479919 C-1.1384177 19.72736323 -1.13528882 16.519937 -1.1328125 13.3125 C-1.13483673 12.0958667 -1.13686096 10.8792334 -1.13894653 9.62573242 C-1.13579437 8.50787354 -1.13264221 7.39001465 -1.12939453 6.23828125 C-1.12859894 5.24868408 -1.12780334 4.25908691 -1.12698364 3.23950195 C-1 1 -1 1 0 0 Z " fill="#8E55FF" transform="translate(62,26)"/>
<path d="M0 0 C3.4375 0.5625 3.4375 0.5625 5.875 2.0625 C8.07578902 5.58376244 8.24164661 8.51689643 7.4375 12.5625 C5.875 15.0625 5.875 15.0625 3.4375 16.5625 C0 17.125 0 17.125 -3.5625 16.5625 C-6.94371991 14.11651113 -8.33186783 12.66953441 -9.1875 8.5625 C-8.06378731 3.1686791 -5.3834601 0.85002002 0 0 Z M-2.5625 5.5625 C-2.8925 7.2125 -3.2225 8.8625 -3.5625 10.5625 C-1.0875 11.0575 -1.0875 11.0575 1.4375 11.5625 C1.7675 9.9125 2.0975 8.2625 2.4375 6.5625 C0.7875 6.2325 -0.8625 5.9025 -2.5625 5.5625 Z " fill="#9053FF" transform="translate(44.5625,23.4375)"/>
<path d="M0 0 C8.58 0 17.16 0 26 0 C25.67 1.65 25.34 3.3 25 5 C17.08 5 9.16 5 1 5 C0.67 3.35 0.34 1.7 0 0 Z " fill="#8F55FF" transform="translate(31,76)"/>
<path d="M0 0 C8.25 0 16.5 0 25 0 C25.33 1.32 25.66 2.64 26 4 C25 5 25 5 22.59155273 5.11352539 C21.54942627 5.10828857 20.5072998 5.10305176 19.43359375 5.09765625 C18.30888672 5.09443359 17.18417969 5.09121094 16.02539062 5.08789062 C14.84138672 5.07951172 13.65738281 5.07113281 12.4375 5.0625 C11.24962891 5.05798828 10.06175781 5.05347656 8.83789062 5.04882812 C5.89187774 5.03699675 2.94596319 5.02051287 0 5 C0 3.35 0 1.7 0 0 Z " fill="#8D56FF" transform="translate(70,68)"/>
<path d="M0 0 C7.92 0 15.84 0 24 0 C24.33 1.65 24.66 3.3 25 5 C16.42 5 7.84 5 -1 5 C-0.67 3.35 -0.34 1.7 0 0 Z " fill="#8E55FF" transform="translate(32,67)"/>
<path d="M0 0 C8.25 0 16.5 0 25 0 C25.33 1.32 25.66 2.64 26 4 C25 5 25 5 22.59155273 5.11352539 C21.54942627 5.10828857 20.5072998 5.10305176 19.43359375 5.09765625 C18.30888672 5.09443359 17.18417969 5.09121094 16.02539062 5.08789062 C14.84138672 5.07951172 13.65738281 5.07113281 12.4375 5.0625 C11.24962891 5.05798828 10.06175781 5.05347656 8.83789062 5.04882812 C5.89187774 5.03699675 2.94596319 5.02051287 0 5 C0 3.35 0 1.7 0 0 Z " fill="#8E56FF" transform="translate(70,48)"/>
<path d="M0 0 C8.25 0 16.5 0 25 0 C25.33 1.32 25.66 2.64 26 4 C25 5 25 5 22.59155273 5.11352539 C21.54942627 5.10828857 20.5072998 5.10305176 19.43359375 5.09765625 C18.30888672 5.09443359 17.18417969 5.09121094 16.02539062 5.08789062 C14.84138672 5.07951172 13.65738281 5.07113281 12.4375 5.0625 C11.24962891 5.05798828 10.06175781 5.05347656 8.83789062 5.04882812 C5.89187774 5.03699675 2.94596319 5.02051287 0 5 C0 3.35 0 1.7 0 0 Z " fill="#8D55FF" transform="translate(70,28)"/>
<path d="M0 0 C5.94 0 11.88 0 18 0 C17.67 1.65 17.34 3.3 17 5 C11.72 5 6.44 5 1 5 C0.67 3.35 0.34 1.7 0 0 Z " fill="#8E56FF" transform="translate(70,77)"/>
<path d="M0 0 C5.94 0 11.88 0 18 0 C17.67 1.65 17.34 3.3 17 5 C11.72 5 6.44 5 1 5 C0.67 3.35 0.34 1.7 0 0 Z " fill="#8E55FF" transform="translate(70,57)"/>
<path d="M0 0 C5.94 0 11.88 0 18 0 C18 1.32 18 2.64 18 4 C12.06 4 6.12 4 0 4 C0 2.68 0 1.36 0 0 Z " fill="#8E56FF" transform="translate(70,37)"/>
<path d="M0 0 C2.625 0.375 2.625 0.375 5 1 C5.625 2.875 5.625 2.875 6 5 C5.34 5.66 4.68 6.32 4 7 C1.375 6.625 1.375 6.625 -1 6 C-1.625 4.125 -1.625 4.125 -2 2 C-1.34 1.34 -0.68 0.68 0 0 Z " fill="#8E55FF" transform="translate(62,95)"/>
<path d="M0 0 C1.125 3.75 1.125 3.75 0 6 C-1.98 6 -3.96 6 -6 6 C-6 4.02 -6 2.04 -6 0 C-3.50907189 -1.24546405 -2.58919267 -0.7767578 0 0 Z " fill="#8E56FF" transform="translate(63,8)"/>
<path d="M0 0 C0.38218767 1.65614657 0.71395102 3.32457024 1 5 C0 6 0 6 -2.5 6.125 C-5 6 -5 6 -6 5 C-6.04063832 3.33382885 -6.042721 1.66611905 -6 0 C-3.50907189 -1.24546405 -2.58919267 -0.7767578 0 0 Z " fill="#8D54FF" transform="translate(51,8)"/>
<path d="M0 0 C2.125 0.375 2.125 0.375 4 1 C4.38218767 2.65614657 4.71395102 4.32457024 5 6 C4 7 4 7 1.4375 7.0625 C0.2309375 7.0315625 0.2309375 7.0315625 -1 7 C-1.625 4.625 -1.625 4.625 -2 2 C-1.34 1.34 -0.68 0.68 0 0 Z " fill="#8E56FF" transform="translate(35,7)"/>
</svg>
