<?xml version="1.0" encoding="UTF-8"?>
<svg version="1.1" xmlns="http://www.w3.org/2000/svg" width="128" height="128">
<path d="M0 0 C2.01953125 1.11328125 2.01953125 1.11328125 3.9375 2.375 C4.64261719 2.82230469 5.34773438 3.26960937 6.07421875 3.73046875 C12.96941036 8.48445483 18.31283196 14.976716 19.9375 23.375 C20.82845735 34.3272562 20.94452249 44.18514626 13.73828125 53.09375 C12.17899245 54.8413587 10.58843528 56.56182279 8.9609375 58.24609375 C6.79504282 60.40326853 6.79504282 60.40326853 4.9375 63.375 C5.45699219 63.7875 5.97648437 64.2 6.51171875 64.625 C13.43561708 70.35865333 19.09333132 77.015079 20.15869141 86.3034668 C20.63775399 94.9031499 20.81784824 102.9562663 15.9375 110.375 C15.49019531 111.08011719 15.04289062 111.78523438 14.58203125 112.51171875 C9.82804517 119.40691036 3.335784 124.75033196 -5.0625 126.375 C-16.05782615 127.26946106 -25.8419703 127.34260031 -34.81640625 120.17578125 C-38.01567099 117.34968822 -41.04531996 114.39218004 -44.0625 111.375 C-44.59617188 111.96667969 -45.12984375 112.55835937 -45.6796875 113.16796875 C-52.29975453 120.1889049 -59.80343603 125.97140285 -69.7578125 126.61328125 C-85.03607683 126.99727023 -85.03607683 126.99727023 -92.0625 122.375 C-92.76761719 121.92769531 -93.47273438 121.48039062 -94.19921875 121.01953125 C-101.09441036 116.26554517 -106.43783196 109.773284 -108.0625 101.375 C-108.91328141 90.91661392 -109.26170179 80.78339063 -102.32347107 72.23152161 C-95.54137825 64.78212439 -88.50499445 57.59978128 -81.41015625 50.44921875 C-80.76893766 49.80267649 -80.12771908 49.15613422 -79.46706963 48.48999977 C-76.08058018 45.07700345 -72.69057382 41.66754109 -69.2980957 38.26049805 C-66.5107607 35.4597777 -63.73089906 32.65194509 -60.95727539 29.83764648 C-57.57994955 26.41083523 -54.19035575 22.99662108 -50.79174614 19.5909214 C-49.50898972 18.30149235 -48.23045833 17.0078445 -46.95646858 15.70975304 C-34.54776664 3.07953337 -18.44650027 -7.81301681 0 0 Z M-45.8125 26.75 C-47.1053451 28.07300932 -48.39960709 29.39463559 -49.6953125 30.71484375 C-52.83425322 33.91920258 -55.95348996 37.14160404 -59.0625 40.375 C-57.49967018 44.14103869 -55.1561525 46.51139151 -52.2734375 49.359375 C-51.81015045 49.81983215 -51.3468634 50.28028931 -50.86953735 50.75469971 C-49.39684102 52.21625078 -47.91732597 53.67067168 -46.4375 55.125 C-45.43443678 56.11802611 -44.43182743 57.11151089 -43.4296875 58.10546875 C-40.97919165 60.53397941 -38.5225333 62.95614675 -36.0625 65.375 C-33.5928271 64.39614593 -31.14528936 63.41299713 -28.73046875 62.3046875 C-22.8934507 59.82280581 -18.27822689 59.322374 -12 59.75 C-7.72942784 59.96518387 -4.74071223 59.79348974 -0.9921875 57.48046875 C6.07732304 50.61143687 11.96931465 42.23425433 12.1875 32.125 C12.04491516 24.20506016 9.18686706 18.89070366 3.83984375 13.13671875 C-1.90988527 7.81202103 -8.37742621 5.78010658 -16.12011719 6.01513672 C-28.85882015 7.57312279 -37.45530193 18.04801872 -45.8125 26.75 Z M-72.109375 53.18359375 C-73.02169891 54.08381004 -73.02169891 54.08381004 -73.95245361 55.00221252 C-75.24521747 56.2811045 -76.53640879 57.56158766 -77.82617188 58.84350586 C-79.7815443 60.78181444 -81.74986418 62.70629329 -83.71875 64.63085938 C-95.92978699 76.54423122 -95.92978699 76.54423122 -100.375 92.5625 C-100.26269562 100.16176294 -96.76198219 106.35543842 -91.70703125 111.87109375 C-86.13890742 116.96308347 -79.95660676 118.78607493 -72.55078125 118.640625 C-62.93291807 117.61391433 -56.68456505 111.97276389 -50.0625 105.375 C-49.47210938 104.94316406 -48.88171875 104.51132813 -48.2734375 104.06640625 C-46.27610472 101.27658337 -46.93405233 98.15382253 -47.125 94.875 C-47.40563814 85.94707293 -45.03882093 79.30267281 -41.0625 71.375 C-44.45899088 67.95386664 -47.85869518 64.53597238 -51.26147461 61.12109375 C-52.41960059 59.95792608 -53.57682923 58.79386426 -54.7331543 57.62890625 C-56.39138785 55.9585999 -58.05277812 54.2914921 -59.71484375 52.625 C-60.23465317 52.1000293 -60.75446259 51.57505859 -61.2900238 51.03417969 C-62.52867967 49.79532908 -63.79303278 48.58225811 -65.0625 47.375 C-67.48238616 47.375 -70.37017669 51.466111 -72.109375 53.18359375 Z M-31.87890625 74.0546875 C-37.97244637 80.92710117 -39.6202399 86.81630156 -39.41796875 95.95703125 C-38.94267438 100.52716943 -37.67277816 103.6460312 -35.0625 107.375 C-34.505625 108.261875 -33.94875 109.14875 -33.375 110.0625 C-30.10001575 113.33748425 -26.34165612 115.60457449 -22.0625 117.375 C-20.7425 117.375 -19.4225 117.375 -18.0625 117.375 C-18.0625 100.875 -18.0625 84.375 -18.0625 67.375 C-23.37431783 67.375 -28.03671599 70.50169436 -31.87890625 74.0546875 Z M-10.0625 67.375 C-10.0625 84.205 -10.0625 101.035 -10.0625 118.375 C-1.10660308 115.38970103 4.52745379 112.79580571 9.375 104.6875 C12.28907247 98.50966636 13.08567529 92.38468987 11.18359375 85.7421875 C8.0797202 77.5869119 3.97882115 72.09518416 -4.0625 68.375 C-7.0325 67.88 -7.0325 67.88 -10.0625 67.375 Z " fill="#F92496" transform="translate(108.0625,1.625)"/>
</svg>
