<?xml version="1.0" encoding="UTF-8"?>
<svg version="1.1" xmlns="http://www.w3.org/2000/svg" width="128" height="128">
<path d="M0 0 C0.9176413 0.10164459 1.83528259 0.20328918 2.7807312 0.30801392 C5.78848472 0.64565842 8.79235725 1.00976634 11.796875 1.375 C13.88638245 1.61657741 15.97606671 1.85662999 18.06591797 2.09521484 C22.38919027 2.59142956 26.7110245 3.0983887 31.03222656 3.61230469 C37.36334638 4.36077072 43.70013131 5.04804294 50.0390625 5.7265625 C52.97524147 6.04652152 55.91120666 6.36834553 58.8470459 6.69140625 C60.72209107 6.89624244 62.59750082 7.09776971 64.4732666 7.29589844 C67.08517729 7.57370406 69.69491912 7.86689147 72.3046875 8.1640625 C73.07029999 8.24210114 73.83591248 8.32013977 74.62472534 8.40054321 C80.43760114 9.08693597 83.73588542 10.54950393 87.83276367 14.67919922 C94.06256673 24.47687553 88.40163203 44.82725229 87.14819336 55.65625 C86.73303513 59.26163594 86.33745167 62.86882 85.94335938 66.4765625 C85.68085749 68.79440364 85.4172252 71.11211709 85.15234375 73.4296875 C84.97870552 75.02839188 84.97870552 75.02839188 84.80155945 76.65939331 C82.93992039 92.3726559 82.93992039 92.3726559 77.484375 96.9375 C74.546875 98.375 74.546875 98.375 72.546875 98.375 C72.52625 99.57125 72.505625 100.7675 72.484375 102 C71.92598489 106.55613961 70.00239803 108.42770586 66.53125 111.24609375 C61.79566616 113.94015621 56.3880405 113.52331902 51.08813477 113.52026367 C49.82865524 113.52530159 49.82865524 113.52530159 48.54373169 113.53044128 C45.77523306 113.53992023 43.00679509 113.54189275 40.23828125 113.54296875 C38.30923945 113.54618307 36.3801979 113.54954727 34.45115662 113.55305481 C30.41038447 113.55903815 26.36963369 113.56089549 22.32885742 113.56030273 C17.15610731 113.56020107 11.98349432 113.57386144 6.81077671 113.59107494 C2.82760491 113.60220261 -1.1555338 113.60422172 -5.13871956 113.60369301 C-7.04565975 113.60487165 -8.95260083 113.60928692 -10.85952568 113.61702538 C-13.52811123 113.62684222 -16.19639972 113.62394069 -18.86499023 113.61791992 C-19.64907761 113.62353943 -20.43316498 113.62915894 -21.24101257 113.63494873 C-26.85553206 113.60282279 -31.43329259 113.12188209 -35.765625 109.375 C-38.84498943 105.72538289 -38.59410088 103.17865926 -38.63012695 98.45019531 C-38.63669815 97.73777679 -38.64326935 97.02535828 -38.65003967 96.29135132 C-38.66978396 93.92860817 -38.68143884 91.56592867 -38.69140625 89.203125 C-38.69548178 88.39603844 -38.6995573 87.58895187 -38.70375633 86.75740814 C-38.72462371 82.48410802 -38.73892148 78.21084006 -38.74829102 73.9375 C-38.75934596 69.52789502 -38.79373297 65.11879599 -38.83346272 60.70936966 C-38.85963835 57.31552202 -38.86798376 53.92179462 -38.87157249 50.52785492 C-38.87643747 48.90278463 -38.888049 47.27771967 -38.90661049 45.65274811 C-38.93101915 43.37388858 -38.93003429 41.09633367 -38.9230957 38.81738281 C-38.92896194 37.52213684 -38.93482819 36.22689087 -38.94087219 34.89239502 C-38.29454485 30.23139727 -36.42720649 26.92606403 -32.703125 24 C-29.25375038 23.04184038 -26.02567874 23.25591488 -22.453125 23.375 C-22.35515625 22.36179687 -22.2571875 21.34859375 -22.15625 20.3046875 C-22.00606577 18.95302945 -21.85497577 17.60147183 -21.703125 16.25 C-21.64125 15.58484375 -21.579375 14.9196875 -21.515625 14.234375 C-20.93616462 9.30896181 -19.72152548 6.10876876 -16.453125 2.375 C-10.65024929 -0.86663839 -6.4868012 -0.82628428 0 0 Z M-13.453125 10.375 C-14.42223228 13.45852316 -14.48901096 16.34852967 -14.47265625 19.55078125 C-14.46621094 20.81277344 -14.45976562 22.07476562 -14.453125 23.375 C-13.5017868 23.37864563 -12.55044861 23.38229126 -11.57028198 23.38604736 C-2.59509969 23.42302417 6.37974035 23.48082608 15.35466194 23.55890274 C19.9685519 23.59837473 24.5822511 23.63056453 29.19628906 23.64599609 C33.65097777 23.66116459 38.10514199 23.69561332 42.55959702 23.74330902 C44.25715445 23.75812087 45.95478676 23.76604091 47.6524086 23.76688385 C50.03462575 23.76925594 52.4153963 23.79635257 54.79736328 23.82910156 C55.49579849 23.8240712 56.1942337 23.81904083 56.91383362 23.81385803 C61.89649233 23.91951082 64.75588158 25.17972373 68.546875 28.375 C71.34392671 31.98865621 71.92910285 34.65195218 71.97924805 39.17504883 C71.99904221 40.31585403 72.01883636 41.45665924 72.03923035 42.6320343 C72.04562027 43.85303329 72.05201019 45.07403229 72.05859375 46.33203125 C72.07654495 47.59013107 72.09449615 48.8482309 72.11299133 50.14445496 C72.15793262 53.47682254 72.19025789 56.80882365 72.21643066 60.14135742 C72.24629625 63.5468471 72.29280579 66.95210569 72.33789062 70.35742188 C72.42285838 77.02984107 72.49119369 83.70227562 72.546875 90.375 C75.69336948 87.84898007 76.06517154 85.78919292 76.5300293 81.85302734 C76.7399073 80.15513565 76.7399073 80.15513565 76.95402527 78.42294312 C77.09165787 77.19798126 77.22929047 75.97301941 77.37109375 74.7109375 C77.52222122 73.4491568 77.67334869 72.1873761 77.82905579 70.88735962 C78.14681223 68.21301188 78.45962944 65.53865079 78.76391602 62.86279297 C79.15156511 59.45548692 79.55494674 56.05029419 79.96425152 52.64552879 C80.3561714 49.37640247 80.73858588 46.10617648 81.12109375 42.8359375 C81.33665169 41.0167128 81.33665169 41.0167128 81.55656433 39.16073608 C83.46540067 27.82180206 83.46540067 27.82180206 80.546875 17.375 C78.43840042 16.63355744 78.43840042 16.63355744 75.90820312 16.30908203 C74.91570557 16.15280334 73.92320801 15.99652466 72.90063477 15.83551025 C66.53010106 14.96076182 60.15281411 14.17024463 53.765625 13.4296875 C52.26068678 13.25330949 50.75576357 13.07680348 49.25085449 12.900177 C46.11462203 12.53302582 42.97807763 12.16868931 39.84130859 11.80615234 C35.84999755 11.34443857 31.85980867 10.8736996 27.8698349 10.40058708 C24.76798581 10.03415755 21.66547671 9.67357551 18.5627594 9.31457901 C17.09233698 9.14356656 15.62214338 8.97057305 14.15220642 8.79543686 C-0.81940918 5.65982352 -0.81940918 5.65982352 -13.453125 10.375 Z M-31.453125 33.375 C-32.02920146 35.52101718 -32.02920146 35.52101718 -31.90722656 37.93823242 C-31.90692444 38.85896042 -31.90662231 39.77968842 -31.90631104 40.72831726 C-31.88566589 41.71902725 -31.86502075 42.70973724 -31.84375 43.73046875 C-31.83809021 44.74724197 -31.83243042 45.7640152 -31.82659912 46.81159973 C-31.80419019 50.06237672 -31.75398442 53.31205559 -31.703125 56.5625 C-31.68306589 58.76495805 -31.6648141 60.96743336 -31.6484375 63.16992188 C-31.6043108 68.5719899 -31.53735389 73.97341651 -31.453125 79.375 C-25.9838837 76.31179802 -25.9838837 76.31179802 -20.77734375 72.83203125 C-20.17728516 72.39826172 -19.57722656 71.96449219 -18.95898438 71.51757812 C-18.35892578 71.07865234 -17.75886719 70.63972656 -17.140625 70.1875 C-10.51602455 65.36898209 -6.76102315 63.49776852 1.546875 64.375 C6.7518303 66.86904108 10.76969888 71.25163006 15.0234375 75.109375 C17.25438832 77.11239586 19.47842863 79.09905164 21.796875 81 C22.37953125 81.48726562 22.9621875 81.97453125 23.5625 82.4765625 C26.51764122 83.81452014 28.41430269 83.11200731 31.546875 82.375 C34.77850675 80.8696528 34.77850675 80.8696528 38.046875 78.91796875 C38.64564453 78.57373367 39.24441406 78.2294986 39.86132812 77.87483215 C41.7615853 76.7792337 43.65406527 75.67090427 45.546875 74.5625 C46.8172484 73.82928066 48.08807811 73.09685135 49.359375 72.36523438 C52.7704823 70.39304903 56.17426534 68.4127053 59.546875 66.375 C60.65667725 65.7572168 61.76647949 65.13943359 62.90991211 64.50292969 C65.7732058 62.62212208 65.7732058 62.62212208 66.27563477 59.61352539 C66.25714478 58.05879517 66.25714478 58.05879517 66.23828125 56.47265625 C66.23248047 55.33505859 66.22667969 54.19746094 66.22070312 53.02539062 C66.18396484 51.84138672 66.14722656 50.65738281 66.109375 49.4375 C66.10744141 48.25736328 66.10550781 47.07722656 66.10351562 45.86132812 C66.02538581 38.13233044 66.02538581 38.13233044 62.546875 31.375 C59.33462884 29.76887692 55.83434103 30.21874136 52.30517578 30.21386719 C51.45299469 30.20890228 50.6008136 30.20393738 49.72280884 30.19882202 C46.89592693 30.18418401 44.06910113 30.17739579 41.2421875 30.171875 C39.28164671 30.16612504 37.32110593 30.16036728 35.36056519 30.15460205 C31.24639625 30.14408749 27.13224689 30.13824776 23.01806641 30.13476562 C17.7429653 30.12927898 12.46812207 30.10524921 7.19310188 30.07679367 C3.14223471 30.05818215 -0.90857015 30.05296249 -4.95947647 30.05142975 C-6.90436336 30.04839949 -8.84924905 30.04035843 -10.79409409 30.02724457 C-13.51380864 30.01021459 -16.23289067 30.01205677 -18.95263672 30.01855469 C-19.75797852 30.0093399 -20.56332031 30.00012512 -21.39306641 29.9906311 C-27.11269544 30.03188732 -27.11269544 30.03188732 -31.453125 33.375 Z M-15.390625 76.5625 C-16.94139687 77.72266878 -18.492178 78.8828252 -20.04296875 80.04296875 C-20.78345459 80.614104 -21.52394043 81.18523926 -22.28686523 81.77368164 C-24.453125 83.375 -24.453125 83.375 -26.55883789 84.64624023 C-28.75680366 85.91497067 -28.75680366 85.91497067 -31.453125 88.375 C-32.37008742 92.09780639 -32.37008742 92.09780639 -32.015625 96.0625 C-31.99338867 97.07666992 -31.99338867 97.07666992 -31.97070312 98.11132812 C-31.85667508 102.19711829 -31.85667508 102.19711829 -29.453125 105.375 C-26.58283745 105.58424877 -23.80826519 105.66863599 -20.93603516 105.66552734 C-19.61387245 105.67560318 -19.61387245 105.67560318 -18.26499939 105.68588257 C-15.34067198 105.70493635 -12.41657319 105.70879056 -9.4921875 105.7109375 C-7.46438501 105.71736062 -5.43658347 105.7240886 -3.40878296 105.73110962 C0.84664051 105.74310108 5.10198269 105.74678856 9.35742188 105.74560547 C14.81422721 105.74540225 20.27051191 105.77269952 25.72719383 105.80714989 C29.91704712 105.82937282 34.10677425 105.83344441 38.29668045 105.83238602 C40.30855732 105.83474912 42.3204373 105.84361232 44.33225632 105.85905075 C47.1455416 105.87861634 49.9576931 105.87290978 52.77099609 105.86083984 C54.02108711 105.87769836 54.02108711 105.87769836 55.2964325 105.89489746 C58.91457082 105.85539125 61.09779359 105.70108012 64.06698608 103.5451355 C66.18155115 100.44429958 66.00064537 98.14745199 65.9375 94.421875 C65.92901031 93.43154266 65.92901031 93.43154266 65.92034912 92.42120361 C65.8980373 90.32171737 65.84785814 88.2239663 65.796875 86.125 C65.77680294 84.6979414 65.75855339 83.27085592 65.7421875 81.84375 C65.69819193 78.35360707 65.62920376 74.86447301 65.546875 71.375 C56.83272325 75.58398206 48.43392964 80.08368488 40.14672852 85.08544922 C39.46022217 85.49811035 38.77371582 85.91077148 38.06640625 86.3359375 C37.45901611 86.70509277 36.85162598 87.07424805 36.22583008 87.45458984 C32.25400285 89.63196205 27.9645597 90.18293227 23.546875 89.375 C18.17305244 86.74138801 14.13978618 83.45073857 9.859375 79.3125 C7.76841351 77.31867958 5.66674312 75.33805796 3.546875 73.375 C2.88042969 72.75753906 2.21398438 72.14007813 1.52734375 71.50390625 C-5.2086572 67.66425285 -10.13562639 72.51985792 -15.390625 76.5625 Z " fill="#38C0FA" transform="translate(38.453125,7.625)"/>
<path d="M0 0 C4.3604287 2.22135047 7.20212362 4.40542702 9 9 C9.62251561 13.12935355 9.97324058 17.11144983 8.015625 20.91015625 C5.78641369 23.71043095 3.45035555 26.01418413 0 27 C-5.29369921 27.52069173 -9.01003212 27.26519644 -13.51953125 24.32421875 C-16.67371482 21.50293054 -17.82515149 18.16641567 -18.16015625 14.015625 C-17.91498544 8.95529949 -15.91587962 6.03786722 -12.5703125 2.34765625 C-9.03647954 -0.68511084 -4.41735548 -0.60236666 0 0 Z M-8.1875 8.0625 C-10.34001949 9.99257357 -10.34001949 9.99257357 -10.5 13.5 C-10.31831521 16.98138734 -10.31831521 16.98138734 -8.3125 19 C-5.35711914 20.27800253 -4.01001617 20.08051862 -1 19 C1.41081799 17.3373669 1.90906546 16.44330589 2.5 13.5625 C2.20330374 10.77271594 2.20330374 10.77271594 -0.3125 8.6875 C-3.47690833 6.70054593 -4.81257334 6.42324991 -8.1875 8.0625 Z " fill="#38C1FA" transform="translate(69,47)"/>
</svg>
