<?xml version="1.0" encoding="UTF-8"?>
<svg version="1.1" xmlns="http://www.w3.org/2000/svg" width="128" height="128">
<path d="M0 0 C3.54946649 0.47121344 5.19952492 1.92357095 8.01953125 4.109375 C14.63663764 8.68668287 22.47206686 12.36226176 30.70703125 12.359375 C33.21938932 11.73036626 35.62711136 10.91653627 38.07861328 10.08276367 C42.54183019 8.85440479 46.9857769 9.12950763 51.58203125 9.171875 C60.43124628 9.05390525 65.52262497 7.93069406 72.3671875 2.07421875 C74.70703125 0.359375 74.70703125 0.359375 77.32421875 -0.07421875 C80.22657424 0.45391479 80.93140595 1.08500129 82.76953125 3.359375 C83.35347656 4.07609375 83.93742187 4.7928125 84.5390625 5.53125 C88.89183683 11.20946372 93.21918444 16.90578952 97.44726562 22.67773438 C98.43806474 24.00033598 99.49167775 25.27589486 100.56640625 26.53125 C102.15786555 29.08194504 102.33200408 30.41242281 101.70703125 33.359375 C99.328125 35.5078125 99.328125 35.5078125 96.14453125 37.734375 C88.90797158 43.23873396 85.41129236 49.76604354 82.70703125 58.359375 C82.39571409 61.44623808 82.55875222 64.24551542 82.70703125 67.359375 C81.01953125 70.859375 81.01953125 70.859375 78.70703125 73.359375 C75.95703125 74.234375 75.95703125 74.234375 73.70703125 74.359375 C73.45953125 75.2875 73.21203125 76.215625 72.95703125 77.171875 C71.63253809 80.54933257 70.84086415 81.6500116 67.70703125 83.359375 C66.71703125 83.359375 65.72703125 83.359375 64.70703125 83.359375 C64.45953125 84.2875 64.21203125 85.215625 63.95703125 86.171875 C62.63253809 89.54933257 61.84086415 90.6500116 58.70703125 92.359375 C57.71703125 92.359375 56.72703125 92.359375 55.70703125 92.359375 C55.45953125 93.2875 55.21203125 94.215625 54.95703125 95.171875 C53.60023447 98.63170679 53.01257934 99.75127052 49.70703125 101.359375 C46.43710034 101.59294149 43.68170815 101.63785412 40.51953125 100.734375 C38.64080563 100.15063057 38.64080563 100.15063057 36.83203125 101.296875 C33.93187411 102.74695357 31.91672383 102.68689465 28.70703125 102.359375 C25.89453125 101.171875 25.89453125 101.171875 23.70703125 99.359375 C22.89453125 96.671875 22.89453125 96.671875 22.70703125 94.359375 C21.61390625 94.276875 20.52078125 94.194375 19.39453125 94.109375 C15.70703125 93.359375 15.70703125 93.359375 13.83203125 91.484375 C12.70703125 89.359375 12.70703125 89.359375 11.70703125 86.359375 C10.77890625 85.9675 9.85078125 85.575625 8.89453125 85.171875 C5.04858435 82.98496402 4.32376099 81.19358391 2.76171875 77.19921875 C1.42946948 74.87518392 0.09191006 74.47757693 -2.29296875 73.359375 C-4.40637925 70.18925925 -4.52621753 69.46766756 -4.41796875 65.859375 C-4.39992188 65.0859375 -4.381875 64.3125 -4.36328125 63.515625 C-4.34007813 62.8040625 -4.316875 62.0925 -4.29296875 61.359375 C-4.29296875 57.36131844 -6.18609361 55.38522445 -8.54296875 52.359375 C-8.9817334 51.78703125 -9.42049805 51.2146875 -9.87255859 50.625 C-13.62628999 45.88068238 -17.83665464 41.85723399 -22.53222656 38.05078125 C-24.80751822 36.13254455 -26.16850527 34.83661228 -26.9296875 31.91796875 C-26.03267045 28.31339102 -23.93383116 26.08793059 -21.48046875 23.421875 C-20.47288385 22.28334882 -19.46775556 21.14264478 -18.46484375 20 C-17.94341797 19.40896484 -17.42199219 18.81792969 -16.88476562 18.20898438 C-13.7239592 14.53624366 -10.78841789 10.68437235 -7.82299805 6.85375977 C-2.84716679 0.44623398 -2.84716679 0.44623398 0 0 Z M-0.29296875 7.359375 C-1.70317716 8.7240881 -1.70317716 8.7240881 -3.12109375 10.54296875 C-3.67128174 11.21972656 -4.22146973 11.89648438 -4.78833008 12.59375 C-5.65687622 13.68429688 -5.65687622 13.68429688 -6.54296875 14.796875 C-7.12908936 15.52519531 -7.71520996 16.25351562 -8.3190918 17.00390625 C-12.26863692 21.95501593 -15.93385019 26.9847853 -19.29296875 32.359375 C-16.65296875 34.339375 -14.01296875 36.319375 -11.29296875 38.359375 C-3.73742496 30.13922319 3.72964807 21.82356504 9.70703125 12.359375 C8.41889783 11.52059045 7.12639869 10.68850717 5.83203125 9.859375 C5.11273437 9.3953125 4.3934375 8.93125 3.65234375 8.453125 C1.78842659 7.19600999 1.78842659 7.19600999 -0.29296875 7.359375 Z M71.58203125 9.859375 C70.85757813 10.3234375 70.133125 10.7875 69.38671875 11.265625 C68.83242187 11.6265625 68.278125 11.9875 67.70703125 12.359375 C71.38666091 17.29782534 75.09740124 22.21241555 78.83203125 27.109375 C79.25145996 27.66391357 79.67088867 28.21845215 80.10302734 28.78979492 C82.4578125 31.86737734 84.89620377 34.69103187 87.70703125 37.359375 C90.01703125 35.049375 92.32703125 32.739375 94.70703125 30.359375 C91.86523532 25.99448194 88.84504674 21.84178318 85.64453125 17.734375 C80.75799446 11.43197688 80.75799446 11.43197688 79.0234375 8.9609375 C78.58902344 8.43242188 78.15460938 7.90390625 77.70703125 7.359375 C75.03152833 7.359375 73.81658484 8.41772752 71.58203125 9.859375 Z M15.70703125 15.359375 C7.434748 24.22399458 -0.05876398 33.63392091 -7.29296875 43.359375 C-4.59626227 47.70088117 -1.91148457 51.72991057 1.70703125 55.359375 C4.42227153 55.8447078 6.05722305 55.4682233 8.6953125 54.75 C10.70703125 54.359375 10.70703125 54.359375 13.64453125 56.109375 C15.70703125 58.359375 15.70703125 58.359375 17.70703125 61.359375 C18.84140625 61.606875 19.97578125 61.854375 21.14453125 62.109375 C22.90796875 62.728125 22.90796875 62.728125 24.70703125 63.359375 C25.74189002 65.67745864 26.74257265 68.01112798 27.70703125 70.359375 C28.69703125 70.648125 29.68703125 70.936875 30.70703125 71.234375 C31.69703125 71.605625 32.68703125 71.976875 33.70703125 72.359375 C34.68638249 74.63146989 35.28145558 76.90412716 35.91796875 79.29296875 C36.57315369 81.65811082 36.57315369 81.65811082 39.39453125 82.921875 C40.15765625 83.06625 40.92078125 83.210625 41.70703125 83.359375 C42.20203125 81.379375 42.20203125 81.379375 42.70703125 79.359375 C46.59477584 79.58806586 48.23710136 80.70063528 50.76953125 83.484375 C51.23488281 84.04382813 51.70023438 84.60328125 52.1796875 85.1796875 C53.6663398 86.59599393 53.6663398 86.59599393 55.828125 86.2265625 C56.44816406 85.94039063 57.06820312 85.65421875 57.70703125 85.359375 C58.20203125 83.874375 58.20203125 83.874375 58.70703125 82.359375 C57.44943335 80.38795597 57.44943335 80.38795597 55.58203125 78.484375 C54.61716797 77.42863281 54.61716797 77.42863281 53.6328125 76.3515625 C52.05136685 74.71558424 50.43640223 73.15615441 48.76953125 71.609375 C46.70703125 69.359375 46.70703125 69.359375 46.70703125 65.359375 C52.460046 65.75613464 55.11775324 69.55733515 58.68945312 73.5859375 C60.22194425 75.2853778 60.22194425 75.2853778 62.70703125 77.359375 C64.99198312 77.58012371 64.99198312 77.58012371 66.70703125 76.359375 C67.03703125 75.369375 67.36703125 74.379375 67.70703125 73.359375 C66.62331586 71.55583581 66.62331586 71.55583581 64.89453125 69.796875 C64.25644531 69.09820312 63.61835937 68.39953125 62.9609375 67.6796875 C59.65118091 64.27241641 56.21554591 60.99800125 52.74609375 57.75390625 C50.56187991 55.18891949 50.02443865 53.66864107 49.70703125 50.359375 C57.08829269 51.80554691 61.09715082 57.57865157 65.9609375 62.85742188 C66.64285156 63.57349609 67.32476562 64.28957031 68.02734375 65.02734375 C68.63852051 65.69016357 69.24969727 66.3529834 69.87939453 67.03588867 C71.62430447 68.58956485 71.62430447 68.58956485 73.87451172 68.25512695 C74.78160889 67.81172974 74.78160889 67.81172974 75.70703125 67.359375 C76.03703125 66.369375 76.36703125 65.379375 76.70703125 64.359375 C75.68622985 62.62100324 75.68622985 62.62100324 74.0078125 60.91796875 C73.03448975 59.86198486 73.03448975 59.86198486 72.04150391 58.78466797 C67.89163521 54.4733528 63.70204874 50.20667487 59.4621582 45.98413086 C57.87657329 44.40397856 56.29649683 42.81845524 54.71679688 41.23242188 C53.70735233 40.22363694 52.69759826 39.21516162 51.6875 38.20703125 C50.77895264 37.29961182 49.87040527 36.39219238 48.93432617 35.45727539 C45.3587759 32.08944644 42.22971614 31.49993793 37.38671875 31.46484375 C32.45681663 33.11053994 30.57101257 38.04509089 28.30078125 42.41796875 C26.70703125 45.359375 26.70703125 45.359375 24.70703125 46.359375 C17.65489855 46.92809538 17.65489855 46.92809538 14.20703125 44.859375 C12.12340973 41.38667246 12.12124424 38.2680474 12.70703125 34.359375 C13.90423794 31.32920358 15.49975421 28.62793236 17.20703125 25.859375 C17.63628906 25.13234375 18.06554687 24.4053125 18.5078125 23.65625 C19.55873211 21.88136355 20.63075515 20.11900101 21.70703125 18.359375 C19.56848275 16.2208265 18.57427811 15.93282437 15.70703125 15.359375 Z M25.13769531 22.0859375 C21.50050067 27.06906514 17.38894468 33.01292998 17.9921875 39.359375 C18.22808594 40.019375 18.46398438 40.679375 18.70703125 41.359375 C21.08709225 41.3176751 21.08709225 41.3176751 23.70703125 40.359375 C25.83825835 37.69845544 25.83825835 37.69845544 27.51953125 34.421875 C28.12410156 33.34035156 28.72867188 32.25882813 29.3515625 31.14453125 C30.85289909 28.57589922 30.85289909 28.57589922 30.70703125 26.359375 C32.91590882 26.47435767 35.12413912 26.60181005 37.33203125 26.734375 C38.56179687 26.80398437 39.7915625 26.87359375 41.05859375 26.9453125 C48.05409665 27.73923467 51.89306358 29.97162718 56.69140625 35.0234375 C57.23307434 35.57550873 57.77474243 36.12757996 58.33282471 36.69638062 C60.05074727 38.44974824 61.75460365 40.2159693 63.45703125 41.984375 C65.17548924 43.75805027 66.89679439 45.52871642 68.62408447 47.29379272 C69.69586299 48.39011503 70.76225006 49.49173878 71.82269287 50.59902954 C73.07979155 51.89026533 74.38910708 53.13028475 75.70703125 54.359375 C76.36703125 54.359375 77.02703125 54.359375 77.70703125 54.359375 C78.60366576 52.641327 79.47362713 50.90934003 80.33203125 49.171875 C80.81929687 48.20894531 81.3065625 47.24601562 81.80859375 46.25390625 C82.92193931 43.471005 82.92193931 43.471005 82.25 40.98828125 C80.0060958 37.16512295 77.24511461 33.86964048 74.39453125 30.484375 C73.25056012 29.11368253 72.10860975 27.74130086 70.96875 26.3671875 C70.40808838 25.70267578 69.84742676 25.03816406 69.26977539 24.35351562 C67.77078714 22.44073074 66.60194264 20.48856829 65.37109375 18.3984375 C63.90099719 16.31542969 63.15527046 15.49952144 60.70336914 14.73291016 C58.22517949 14.48164085 55.88257937 14.49041321 53.39453125 14.609375 C52.51240967 14.63966797 51.63028809 14.66996094 50.72143555 14.70117188 C36.73495996 15.2140006 36.73495996 15.2140006 25.13769531 22.0859375 Z M6.70703125 59.359375 C3.91191384 60.89521366 3.91191384 60.89521366 1.70703125 63.359375 C1.28832572 66.02865621 1.28832572 66.02865621 1.70703125 68.359375 C3.43180036 69.31439658 3.43180036 69.31439658 5.70703125 69.359375 C8.62369792 67.27604167 8.62369792 67.27604167 10.70703125 64.359375 C10.89308335 62.09903877 10.89308335 62.09903877 9.70703125 60.359375 C8.71703125 60.029375 7.72703125 59.699375 6.70703125 59.359375 Z M17.70703125 66.359375 C16.3353552 67.56897116 14.98509516 68.80288688 13.64453125 70.046875 C12.89042969 70.73136719 12.13632812 71.41585937 11.359375 72.12109375 C9.38940379 74.27054364 9.38940379 74.27054364 9.9609375 77.12890625 C10.20714844 77.86496094 10.45335937 78.60101563 10.70703125 79.359375 C13.54126365 79.27601522 15.2640467 78.74546245 17.41015625 76.875 C19.79316672 74.2878814 19.79316672 74.2878814 21.70703125 71.359375 C21.68825305 69.18390903 21.68825305 69.18390903 20.70703125 67.359375 C19.71703125 67.029375 18.72703125 66.699375 17.70703125 66.359375 Z M21.89453125 79.546875 C19.06843817 82.38686454 19.06843817 82.38686454 18.76953125 86.296875 C19.07890625 86.9775 19.38828125 87.658125 19.70703125 88.359375 C22.54126365 88.27601522 24.2640467 87.74546245 26.41015625 85.875 C28.79316672 83.2878814 28.79316672 83.2878814 30.70703125 80.359375 C30.45626462 78.16938347 30.45626462 78.16938347 29.70703125 76.359375 C25.27211871 76.359375 24.87014651 76.60884645 21.89453125 79.546875 Z M42.70703125 84.359375 C43.03703125 87.659375 43.36703125 90.959375 43.70703125 94.359375 C45.68703125 94.854375 45.68703125 94.854375 47.70703125 95.359375 C48.36703125 94.039375 49.02703125 92.719375 49.70703125 91.359375 C48.73137013 90.18977513 47.75140625 89.02376323 46.76953125 87.859375 C45.95162109 86.88484375 45.95162109 86.88484375 45.1171875 85.890625 C44.65183594 85.3853125 44.18648438 84.88 43.70703125 84.359375 C43.37703125 84.359375 43.04703125 84.359375 42.70703125 84.359375 Z M33.70703125 86.359375 C31.04052325 88.52526345 31.04052325 88.52526345 28.70703125 91.359375 C28.75682709 94.11954 28.75682709 94.11954 29.70703125 96.359375 C32.78234681 96.02690845 34.32535631 95.72832744 36.58203125 93.546875 C37.89743355 91.44393114 37.89743355 91.44393114 37.58203125 89.171875 C37.29328125 88.57375 37.00453125 87.975625 36.70703125 87.359375 C35.71703125 87.029375 34.72703125 86.699375 33.70703125 86.359375 Z " fill="#5765EB" transform="translate(26.29296875,24.640625)"/>
<path d="M0 0 C1.09948975 0.36085693 1.09948975 0.36085693 2.22119141 0.72900391 C1.70323548 4.80724393 0.68347958 6.77741699 -2.20068359 9.68212891 C-2.89677734 10.38337891 -3.59287109 11.08462891 -4.31005859 11.80712891 C-5.40833984 12.88220703 -5.40833984 12.88220703 -6.52880859 13.97900391 C-7.24552734 14.71119141 -7.96224609 15.44337891 -8.70068359 16.19775391 C-9.75255859 17.24189453 -9.75255859 17.24189453 -10.82568359 18.30712891 C-11.46344727 18.94038086 -12.10121094 19.57363281 -12.75830078 20.22607422 C-15.09839694 21.96672574 -16.91238634 22.36495461 -19.77880859 22.72900391 C-20.5078125 20.5078125 -20.5078125 20.5078125 -20.77880859 17.72900391 C-19.31933594 15.49316406 -19.31933594 15.49316406 -17.11474609 13.26806641 C-16.32197266 12.46755859 -15.52919922 11.66705078 -14.71240234 10.84228516 C-13.86806641 10.02115234 -13.02373047 9.20001953 -12.15380859 8.35400391 C-11.33267578 7.50966797 -10.51154297 6.66533203 -9.66552734 5.79541016 C-8.86501953 5.00263672 -8.06451172 4.20986328 -7.23974609 3.39306641 C-6.13832275 2.30179443 -6.13832275 2.30179443 -5.01464844 1.18847656 C-2.77880859 -0.27099609 -2.77880859 -0.27099609 0 0 Z " fill="#5764EC" transform="translate(95.77880859375,7.27099609375)"/>
<path d="M0 0 C6.36516574 0.58172609 9.5851225 4.92437352 13.875 9.25 C15.06996094 10.39662109 15.06996094 10.39662109 16.2890625 11.56640625 C17.03671875 12.31277344 17.784375 13.05914062 18.5546875 13.828125 C19.24030762 14.5077832 19.92592773 15.18744141 20.63232422 15.88769531 C22 18 22 18 21.71533203 20.76074219 C21.47927246 21.49969727 21.24321289 22.23865234 21 23 C16.92175998 22.48204407 14.95158692 21.46228817 12.046875 18.578125 C11.345625 17.88203125 10.644375 17.1859375 9.921875 16.46875 C9.20515625 15.7365625 8.4884375 15.004375 7.75 14.25 C7.0178125 13.53328125 6.285625 12.8165625 5.53125 12.078125 C4.83515625 11.376875 4.1390625 10.675625 3.421875 9.953125 C2.78862305 9.31536133 2.15537109 8.67759766 1.50292969 8.02050781 C-0.25158586 5.66177313 -0.71913792 3.907965 -1 1 C-0.67 0.67 -0.34 0.34 0 0 Z " fill="#4F5BEC" transform="translate(31,7)"/>
<path d="M0 0 C1.65 0.33 3.3 0.66 5 1 C5 6.94 5 12.88 5 19 C3.35 19.33 1.7 19.66 0 20 C-1.5220959 18.4779041 -1.12959521 17.11789918 -1.1328125 15 C-1.13410156 14.195625 -1.13539062 13.39125 -1.13671875 12.5625 C-1.13285156 11.716875 -1.12898438 10.87125 -1.125 10 C-1.12886719 9.154375 -1.13273437 8.30875 -1.13671875 7.4375 C-1.13542969 6.633125 -1.13414063 5.82875 -1.1328125 5 C-1.13168457 4.2575 -1.13055664 3.515 -1.12939453 2.75 C-1 1 -1 1 0 0 Z " fill="#5865EB" transform="translate(62,10)"/>
<path d="M0 0 C1.65 0.33 3.3 0.66 5 1 C5 2.32 5 3.64 5 5 C1.25 6.125 1.25 6.125 -1 5 C-0.67 3.35 -0.34 1.7 0 0 Z " fill="#5767EC" transform="translate(62,0)"/>
</svg>
