<?xml version="1.0" encoding="UTF-8"?>
<svg version="1.1" xmlns="http://www.w3.org/2000/svg" width="128" height="128">
<path d="M0 0 C0.9904834 -0.00700928 1.9809668 -0.01401855 3.00146484 -0.02124023 C6.28250996 -0.03887617 9.56269579 -0.02717726 12.84375 -0.01367188 C15.11914231 -0.01636517 17.39453351 -0.02024622 19.66992188 -0.02526855 C24.44151758 -0.03117121 29.21281404 -0.02257569 33.984375 -0.00390625 C40.10827453 0.01888338 46.2314729 0.00576445 52.35534668 -0.01819611 C57.05474148 -0.03263316 61.75396938 -0.02805764 66.45336914 -0.01768494 C68.71167076 -0.01501187 70.96998741 -0.01830766 73.22827148 -0.02760315 C76.38175744 -0.03773402 79.5340995 -0.02231543 82.6875 0 C84.09491455 -0.01214539 84.09491455 -0.01214539 85.53076172 -0.02453613 C91.75614734 0.05729992 91.75614734 0.05729992 94.42597961 2.14862061 C95.61243717 5.21111596 95.70344812 7.6495021 95.68432617 10.93847656 C95.68409958 12.23952332 95.68387299 13.54057007 95.68363953 14.88104248 C95.66832067 16.29634954 95.6526727 17.71165308 95.63671875 19.12695312 C95.63112107 20.57854779 95.62685178 22.03014813 95.62385559 23.48175049 C95.6124202 27.29591616 95.58296465 31.10973724 95.54974365 34.92376709 C95.51901438 38.81827127 95.50534417 42.71283132 95.49023438 46.60742188 C95.45809336 54.24429745 95.40691324 61.88088944 95.34375 69.51757812 C96.148125 69.49695313 96.9525 69.47632812 97.78125 69.45507812 C100.34375 69.51757812 100.34375 69.51757812 101.34375 70.51757812 C101.81547711 77.7114166 101.81547711 77.7114166 100.11502075 80.61742401 C98.34375 82.51757812 98.34375 82.51757812 96.2026062 83.02094269 C94.95158615 83.02320484 94.95158615 83.02320484 93.67529297 83.0255127 C92.71629089 83.03679199 91.75728882 83.04807129 90.76922607 83.05969238 C89.71874084 83.05159546 88.66825562 83.04349854 87.5859375 83.03515625 C86.47841125 83.04216553 85.37088501 83.0491748 84.22979736 83.05639648 C80.55919517 83.07403964 76.88936039 83.06233063 73.21875 83.04882812 C70.6743149 83.0515212 68.12988079 83.05540208 65.58544922 83.0604248 C60.24891426 83.06632847 54.91265579 83.05810874 49.57617188 83.0390625 C43.40540005 83.01729304 37.23515683 83.0243443 31.06439781 83.04636812 C25.12965869 83.06670223 19.19508394 83.06455647 13.26031494 83.05284119 C10.73406908 83.05016736 8.20780978 83.05346655 5.68157959 83.0627594 C2.15454044 83.07288553 -1.37147487 83.05747758 -4.8984375 83.03515625 C-5.94892273 83.04325317 -6.99940796 83.0513501 -8.08172607 83.05969238 C-9.52022919 83.04277344 -9.52022919 83.04277344 -10.98779297 83.0255127 C-11.82180634 83.02400459 -12.6558197 83.02249649 -13.5151062 83.02094269 C-15.65625 82.51757812 -15.65625 82.51757812 -17.42752075 80.61742401 C-19.44658844 77.16692344 -18.91450416 74.45595404 -18.65625 70.51757812 C-17.65625 69.51757812 -17.65625 69.51757812 -15.09375 69.45507812 C-14.289375 69.47570312 -13.485 69.49632813 -12.65625 69.51757812 C-12.66291183 68.71213562 -12.66957367 67.90669312 -12.67643738 67.07684326 C-12.73656016 59.48457699 -12.7822302 51.89242622 -12.81168652 44.29998398 C-12.82733945 40.39666332 -12.84857061 36.49353944 -12.88256836 32.59033203 C-12.91517557 28.8231742 -12.93310582 25.0562056 -12.94088173 21.28891754 C-12.94642284 19.85199251 -12.95724336 18.41507777 -12.97344017 16.97823334 C-12.99522989 14.96508391 -12.99647554 12.95174388 -12.99682617 10.93847656 C-13.00348801 9.79264099 -13.01014984 8.64680542 -13.01701355 7.46624756 C-12.01665798 -0.71007154 -6.98101098 -0.06024314 0 0 Z M-6.65625 4.51757812 C-8.99386804 8.02400519 -8.9001098 9.40613762 -8.88330078 13.54956055 C-8.88314972 14.79062057 -8.88299866 16.0316806 -8.88284302 17.31034851 C-8.8726298 18.66458293 -8.86219781 20.01881571 -8.8515625 21.37304688 C-8.84783167 22.75881242 -8.84498503 24.1445806 -8.84298706 25.53034973 C-8.83535608 29.17511293 -8.8157123 32.81971636 -8.7935791 36.4644165 C-8.77310909 40.18458862 -8.76387328 43.90478736 -8.75390625 47.625 C-8.7335274 54.92266707 -8.69438013 62.21989561 -8.65625 69.51757812 C4.21375 69.51757812 17.08375 69.51757812 30.34375 69.51757812 C30.34375 70.50757812 30.34375 71.49757813 30.34375 72.51757812 C37.60375 72.51757812 44.86375 72.51757812 52.34375 72.51757812 C52.34375 71.52757813 52.34375 70.53757812 52.34375 69.51757812 C65.21375 69.51757812 78.08375 69.51757812 91.34375 69.51757812 C91.38567909 61.49281557 91.42575074 53.46844924 91.44725037 45.44367218 C91.45781553 41.70678526 91.4719362 37.96998893 91.49462891 34.2331543 C91.51634539 30.63459181 91.52831608 27.03611723 91.53350449 23.43749428 C91.5372024 22.06395394 91.54442345 20.69041847 91.55521011 19.31691551 C91.56970829 17.3945115 91.57056678 15.47201921 91.57080078 13.54956055 C91.575242 12.45479904 91.57968323 11.36003754 91.58425903 10.23210144 C91.54265615 7.29690908 91.54265615 7.29690908 89.34375 4.51757812 C86.27504167 4.21562733 83.40753547 4.10837338 80.3359375 4.12939453 C78.93580414 4.12150909 78.93580414 4.12150909 77.50738525 4.11346436 C74.41100505 4.10022219 71.31513575 4.10901739 68.21875 4.11914062 C66.07405498 4.1171211 63.92936063 4.11421069 61.78466797 4.11044312 C57.2854154 4.10601404 52.78634125 4.11246963 48.28710938 4.12646484 C42.5095703 4.14355695 36.73244926 4.1337189 30.95492554 4.11574745 C26.52495147 4.1049254 22.0950771 4.1083487 17.6651001 4.11613083 C15.53436229 4.11813721 13.40361554 4.11565831 11.27288818 4.10869217 C8.2988678 4.10110367 5.3255317 4.11264538 2.3515625 4.12939453 C1.46422424 4.12332184 0.57688599 4.11724915 -0.33734131 4.11099243 C-3.02706254 4.10347423 -3.02706254 4.10347423 -6.65625 4.51757812 Z M-13.65625 73.51757812 C-13.32625 75.16757813 -12.99625 76.81757812 -12.65625 78.51757812 C22.98375 78.51757812 58.62375 78.51757812 95.34375 78.51757812 C95.67375 76.86757812 96.00375 75.21757813 96.34375 73.51757812 C83.14375 73.51757812 69.94375 73.51757812 56.34375 73.51757812 C56.34375 74.50757812 56.34375 75.49757813 56.34375 76.51757812 C46.44375 76.51757812 36.54375 76.51757812 26.34375 76.51757812 C26.34375 75.52757813 26.34375 74.53757812 26.34375 73.51757812 C13.14375 73.51757812 -0.05625 73.51757812 -13.65625 73.51757812 Z " fill="#F7941F" transform="translate(22.65625,22.482421875)"/>
<path d="M0 0 C1.28265244 0.00303635 1.28265244 0.00303635 2.59121704 0.00613403 C3.93501938 0.00350555 3.93501938 0.00350555 5.30596924 0.00082397 C8.28258166 -0.0035959 11.25913521 -0.00065608 14.23574829 0.00271606 C16.2945863 0.00204306 18.35342423 0.00107307 20.41226196 -0.00018311 C24.73331456 -0.00166026 29.05434652 0.00049505 33.37539673 0.00515747 C38.92761375 0.01085477 44.47978244 0.00757586 50.03199768 0.00158501 C54.2851905 -0.00202012 58.53837178 -0.00088224 62.79156494 0.0017128 C64.83939622 0.0023822 66.88722852 0.00155319 68.93505859 -0.00076675 C71.79182737 -0.00329249 74.64851672 0.0005462 77.50527954 0.00613403 C78.36038116 0.0041098 79.21548279 0.00208557 80.09649658 0 C85.9339859 0.02126618 85.9339859 0.02126618 87.04824829 1.13552856 C87.14729981 2.97125487 87.17624036 4.81080432 87.17764282 6.64920044 C87.18079498 7.82712158 87.18394714 9.00504272 87.18719482 10.21865845 C87.18415848 12.14204041 87.18415848 12.14204041 87.18106079 14.10427856 C87.18201752 15.41005859 87.18297424 16.71583862 87.18395996 18.06118774 C87.18543662 20.82865579 87.1832834 23.5960916 87.17861938 26.36355591 C87.1729221 29.91815506 87.17620127 33.47267871 87.18219185 37.02727509 C87.18666576 40.4071157 87.18353715 43.7869358 87.18106079 47.16677856 C87.18308502 48.4490332 87.18510925 49.73128784 87.18719482 51.05239868 C87.18246658 52.8192804 87.18246658 52.8192804 87.17764282 54.62185669 C87.17684723 55.66474854 87.17605164 56.70764038 87.17523193 57.78213501 C87.04824829 60.13552856 87.04824829 60.13552856 86.04824829 61.13552856 C83.19270248 61.2360797 80.36130806 61.271684 77.50527954 61.2649231 C76.60941132 61.26667542 75.71354309 61.26842773 74.79052734 61.27023315 C71.81391492 61.27465303 68.83736137 61.2717132 65.86074829 61.26834106 C63.80191028 61.26901406 61.74307235 61.26998406 59.68423462 61.27124023 C55.36318202 61.27271739 51.04215006 61.27056208 46.72109985 61.26589966 C41.16888283 61.26020236 35.61671415 61.26348127 30.0644989 61.26947212 C25.81130608 61.27307725 21.5581248 61.27193937 17.30493164 61.26934433 C15.25710037 61.26867493 13.20926806 61.26950394 11.16143799 61.27182388 C8.30466921 61.27434962 5.44797987 61.27051093 2.59121704 61.2649231 C1.73611542 61.26694733 0.88101379 61.26897156 0 61.27105713 C-5.83748932 61.24979095 -5.83748932 61.24979095 -6.95175171 60.13552856 C-7.05080323 58.29980226 -7.07974378 56.46025281 -7.08114624 54.62185669 C-7.0842984 53.44393555 -7.08745056 52.2660144 -7.09069824 51.05239868 C-7.08867401 49.77014404 -7.08664978 48.4878894 -7.08456421 47.16677856 C-7.08552094 45.86099854 -7.08647766 44.55521851 -7.08746338 43.20986938 C-7.08894004 40.44240134 -7.08678682 37.67496552 -7.0821228 34.90750122 C-7.07642551 31.35290207 -7.07970469 27.79837842 -7.08569527 24.24378204 C-7.09016918 20.86394143 -7.08704057 17.48412133 -7.08456421 14.10427856 C-7.08658844 12.82202393 -7.08861267 11.53976929 -7.09069824 10.21865845 C-7.08754608 9.0407373 -7.08439392 7.86281616 -7.08114624 6.64920044 C-7.08035065 5.60630859 -7.07955505 4.56341675 -7.07873535 3.48892212 C-6.8278051 -1.16157959 -3.99252686 0.01454491 0 0 Z M-2.95175171 5.13552856 C-2.95175171 21.96552856 -2.95175171 38.79552856 -2.95175171 56.13552856 C25.42824829 56.13552856 53.80824829 56.13552856 83.04824829 56.13552856 C83.04824829 39.30552856 83.04824829 22.47552856 83.04824829 5.13552856 C54.66824829 5.13552856 26.28824829 5.13552856 -2.95175171 5.13552856 Z " fill="#F8931E" transform="translate(23.951751708984375,28.864471435546875)"/>
</svg>
