<?xml version="1.0" encoding="UTF-8"?>
<svg version="1.1" xmlns="http://www.w3.org/2000/svg" width="128" height="128">
<path d="M0 0 C4.19849542 3.58325696 6.72177229 7.5390719 9.3125 12.3125 C9.67150391 12.95767578 10.03050781 13.60285156 10.40039062 14.26757812 C11.27445475 15.84089355 12.13830783 17.41987465 13 19 C13.72445312 18.89558594 14.44890625 18.79117187 15.1953125 18.68359375 C18.32901027 18.42036314 20.9108249 18.37707992 24 19 C27.8141144 22.30941117 29.64563414 26.22817068 30.625 31.125 C30 34 30 34 27.7265625 37.23828125 C26.58178651 39.04765093 26.58178651 39.04765093 26 41 C27.10019934 43.86115059 28.02103397 45.63818894 29.75 48.0625 C34.95134228 55.68833893 34.95134228 55.68833893 34 61 C32.40295249 63.99941843 30.97310565 65.64488839 27.74237061 66.8238678 C24.80460239 67.54533355 21.86601706 68.12967888 18.890625 68.67578125 C17.80867859 68.89066696 16.72673218 69.10555267 15.61199951 69.32695007 C12.16139431 70.00776931 8.70613951 70.66042086 5.25 71.3125 C2.90719094 71.76963742 0.56473732 72.22860046 -1.77734375 72.68945312 C-7.5142759 73.81417153 -13.25527618 74.91582371 -19 76 C-18.34 78.31 -17.68 80.62 -17 83 C-19.25740623 85.33524782 -21.2805761 87.18705073 -24 89 C-23.50628906 89.78503906 -23.01257812 90.57007812 -22.50390625 91.37890625 C-15.77643505 102.41087613 -15.77643505 102.41087613 -16 108 C-17.2812399 111.91908675 -18.37452388 113.55932365 -21.75 115.9375 C-25.83255676 117.27218202 -27.89649319 117.31898433 -32 116 C-37.05585886 111.48241069 -40.2252605 105.46707209 -43.375 99.5625 C-43.82488281 98.73556641 -44.27476563 97.90863281 -44.73828125 97.05664062 C-45.83310344 95.04170192 -46.9201028 93.0229647 -48 91 C-48.70125 91.04640625 -49.4025 91.0928125 -50.125 91.140625 C-56.69718843 91.39065391 -61.59880793 90.94898477 -67 87 C-71.1300105 82.65819409 -72.17850508 79.21490503 -72.375 73.3125 C-72.42398438 72.31863281 -72.47296875 71.32476562 -72.5234375 70.30078125 C-71.78127699 65.62073926 -70.22566284 62.4864408 -67 59 C-63.34583063 56.48079919 -59.44546172 54.52170901 -55.5 52.5 C-44.96020545 46.73720631 -38.06918922 40.75160739 -31.31445312 30.89892578 C-29.28453328 27.96640042 -27.07240279 25.18267266 -24.875 22.375 C-23.67640172 20.80760225 -22.47780841 19.24020059 -21.27978516 17.67236328 C-18.88540115 14.54349445 -16.47948622 11.42393972 -14.0625 8.3125 C-13.60149902 7.71163574 -13.14049805 7.11077148 -12.66552734 6.49169922 C-8.8730857 1.62573945 -6.37906129 -0.89306858 0 0 Z M-4 6 C-5.34308394 8.92239779 -5.34308394 8.92239779 -3.98706055 11.36572266 C-3.45894775 12.2891748 -2.93083496 13.21262695 -2.38671875 14.1640625 C-1.80277344 15.19587646 -1.21882813 16.22769043 -0.6171875 17.29077148 C0.01960938 18.39106689 0.65640625 19.4913623 1.3125 20.625 C1.95316406 21.74914307 2.59382813 22.87328613 3.25390625 24.03149414 C5.15696259 27.36160486 7.07500006 30.68253399 9 34 C9.51224121 34.88381348 10.02448242 35.76762695 10.55224609 36.67822266 C13.33737089 41.47066215 16.15525841 46.2427373 19 51 C19.64195313 52.07507812 20.28390625 53.15015625 20.9453125 54.2578125 C22.29275906 56.50773489 23.64342018 58.75557729 25 61 C26.485 60.505 26.485 60.505 28 60 C27.32986605 56.6085822 26.02453945 53.9887225 24.33203125 50.984375 C23.77491455 49.99115234 23.21779785 48.99792969 22.64379883 47.97460938 C22.03947021 46.91048828 21.4351416 45.84636719 20.8125 44.75 C20.19334717 43.65494141 19.57419434 42.55988281 18.9362793 41.43164062 C17.29660853 38.53890662 15.65149604 35.64941696 14.00341797 32.76147461 C13.0042718 31.00749903 12.00934948 29.25119273 11.015625 27.49414062 C9.12478775 24.15681287 7.22092163 20.82729711 5.3125 17.5 C4.72509033 16.46198242 4.13768066 15.42396484 3.5324707 14.35449219 C2.98163818 13.40219727 2.43080566 12.44990234 1.86328125 11.46875 C1.14072144 10.20708008 1.14072144 10.20708008 0.40356445 8.91992188 C-0.93500971 6.69987002 -0.93500971 6.69987002 -4 6 Z M-10 13 C-11.49612408 14.85322365 -12.94310162 16.72284917 -14.375 18.625 C-15.28181267 19.8182706 -16.1893923 21.01095867 -17.09765625 22.203125 C-17.80946045 23.13801758 -17.80946045 23.13801758 -18.53564453 24.09179688 C-21.36746952 27.78195094 -24.26147469 31.42367372 -27.15576172 35.06494141 C-28.44915488 36.70097456 -29.72481156 38.34975613 -31 40 C-31.4851709 40.60360352 -31.9703418 41.20720703 -32.47021484 41.82910156 C-35.20393614 45.01199498 -35.20393614 45.01199498 -35.76611328 48.94018555 C-34.29698165 52.89017395 -32.2121097 56.50033527 -30.1875 60.1875 C-29.74857422 61.01958984 -29.30964844 61.85167969 -28.85742188 62.70898438 C-28.42365234 63.49982422 -27.98988281 64.29066406 -27.54296875 65.10546875 C-27.15133545 65.82887451 -26.75970215 66.55228027 -26.35620117 67.29760742 C-24.64734288 69.44267832 -23.66535486 69.55122832 -21 70 C-18.23621212 69.61782237 -15.56754381 69.16028629 -12.83984375 68.6015625 C-12.05356094 68.44714691 -11.26727814 68.29273132 -10.45716858 68.13363647 C-7.94895079 67.63875056 -5.44333591 67.13179287 -2.9375 66.625 C-1.24689124 66.2909247 0.44386266 65.95758299 2.13476562 65.625 C3.74752555 65.30534126 5.36016029 64.98505012 6.97265625 64.6640625 C7.73208023 64.51297028 8.49150421 64.36187805 9.27394104 64.20620728 C12.2524834 63.60302526 15.1136413 62.96211957 18 62 C16.59046043 57.13746138 14.42975965 53.04468038 11.8125 48.75 C10.92445493 47.26772088 10.03783754 45.78458588 9.15234375 44.30078125 C8.65976074 43.47658691 8.16717773 42.65239258 7.65966797 41.80322266 C4.34835583 36.21032975 1.11726914 30.57059538 -2.125 24.9375 C-2.80747836 23.75289659 -3.490013 22.5683256 -4.17260742 21.38378906 C-5.78240673 18.58957675 -7.39153909 15.79498288 -9 13 C-9.33 13 -9.66 13 -10 13 Z M18 25 C17.67 25.66 17.34 26.32 17 27 C17.76501555 28.79540511 17.76501555 28.79540511 18.9375 30.625 C19.618125 31.73875 20.29875 32.8525 21 34 C21.99 33.01 22.98 32.02 24 31 C22.515 28.03 22.515 28.03 21 25 C20.01 25 19.02 25 18 25 Z M-52.9375 57.6875 C-53.85724609 58.21794922 -54.77699219 58.74839844 -55.72460938 59.29492188 C-56.60826172 59.82021484 -57.49191406 60.34550781 -58.40234375 60.88671875 C-59.21179443 61.36326904 -60.02124512 61.83981934 -60.85522461 62.33081055 C-63.94756475 64.73745022 -65.70019263 67.42263508 -66.43359375 71.28125 C-66.44056655 75.2418024 -66.32055584 77.46192413 -64.25 80.9375 C-61.04815163 83.87252767 -59.28598165 84.8538284 -54.94140625 85.34765625 C-49.68202368 84.88374639 -46.22785251 82.78968928 -41.75 80.125 C-40.94820312 79.66480469 -40.14640625 79.20460938 -39.3203125 78.73046875 C-36.1475907 76.90005233 -33.04870651 75.03247101 -30 73 C-31.47159329 67.86541905 -33.75327902 63.65314066 -36.5 59.125 C-36.90347656 58.43664063 -37.30695312 57.74828125 -37.72265625 57.0390625 C-38.75505148 55.32181102 -39.87111428 53.65541825 -41 52 C-45.26723965 52 -49.3579603 55.55676213 -52.9375 57.6875 Z M-28 78 C-28.33 79.32 -28.66 80.64 -29 82 C-28.01 82.495 -28.01 82.495 -27 83 C-26.34 82.67 -25.68 82.34 -25 82 C-25.33 80.68 -25.66 79.36 -26 78 C-26.66 78 -27.32 78 -28 78 Z M-36 83 C-37.79540511 83.76501555 -37.79540511 83.76501555 -39.625 84.9375 C-40.73875 85.618125 -41.8525 86.29875 -43 87 C-40.68283247 91.09385429 -38.353768 95.18039418 -36.00439453 99.25585938 C-35.16409922 100.71504014 -34.32941178 102.1774484 -33.49609375 103.640625 C-31.35192814 107.27024704 -29.8721066 109.34052574 -26 111 C-24.68 109.68 -23.36 108.36 -22 107 C-23.53397852 101.53520151 -26.11506953 97.0218192 -29 92.1875 C-29.45117188 91.41212891 -29.90234375 90.63675781 -30.3671875 89.83789062 C-32.5237082 85.75256133 -32.5237082 85.75256133 -36 83 Z " fill="#F8B81E" transform="translate(72,5)"/>
<path d="M0 0 C0.51175781 0.23976563 1.02351563 0.47953125 1.55078125 0.7265625 C1.4765625 2.953125 1.4765625 2.953125 0.55078125 5.7265625 C-1.7365706 7.44873427 -3.76979516 8.76418843 -6.26171875 10.1015625 C-6.89142578 10.46894531 -7.52113281 10.83632813 -8.16992188 11.21484375 C-12.81382872 13.79749919 -12.81382872 13.79749919 -15.8984375 13.453125 C-16.41019531 13.21335937 -16.92195313 12.97359375 -17.44921875 12.7265625 C-17.375 10.5 -17.375 10.5 -16.44921875 7.7265625 C-14.1618669 6.00439073 -12.12864234 4.68893657 -9.63671875 3.3515625 C-9.00701172 2.98417969 -8.37730469 2.61679688 -7.72851562 2.23828125 C-3.08460878 -0.34437419 -3.08460878 -0.34437419 0 0 Z " fill="#F8B81E" transform="translate(126.44921875,10.2734375)"/>
<path d="M0 0 C-0.2676756 3.30133235 -0.5603835 4.62503298 -3.125 6.8125 C-6.71639004 8.29590023 -9.14697576 8.4903849 -13 8 C-15.5 6.25 -15.5 6.25 -17 4 C-16.75 1.75 -16.75 1.75 -16 0 C-14.35 0 -12.7 0 -11 0 C-11 0.66 -11 1.32 -11 2 C-10.113125 1.484375 -9.22625 0.96875 -8.3125 0.4375 C-4.79976669 -1.0868937 -3.55293493 -1.14947895 0 0 Z " fill="#F8B91D" transform="translate(27,78)"/>
<path d="M0 0 C10.55808656 0.77904328 10.55808656 0.77904328 15 3 C14.67 4.65 14.34 6.3 14 8 C9.02906176 7.58846263 4.55491614 7.20399168 0 5 C0 3.35 0 1.7 0 0 Z " fill="#F8B71E" transform="translate(110,34)"/>
<path d="M0 0 C1.67542976 0.28604898 3.34385343 0.61781233 5 1 C4.53328373 6.41390868 3.75702189 10.20517932 1 15 C-0.32 15 -1.64 15 -3 15 C-4.2288865 11.48538462 -3.75329849 9.31643613 -2.625 5.8125 C-2.34914063 4.93207031 -2.07328125 4.05164063 -1.7890625 3.14453125 C-1 1 -1 1 0 0 Z " fill="#F8B71E" transform="translate(99,0)"/>
<path d="M0 0 C1.65 0.33 3.3 0.66 5 1 C4.67 2.65 4.34 4.3 4 6 C2.35 5.67 0.7 5.34 -1 5 C-0.67 3.35 -0.34 1.7 0 0 Z " fill="#F8B91F" transform="translate(31,72)"/>
</svg>
