<?xml version="1.0" encoding="UTF-8"?>
<svg version="1.1" xmlns="http://www.w3.org/2000/svg" width="128" height="128">
<path d="M0 0 C3.817383 0.06146055 3.817383 0.06146055 6.0625 1.4375 C7.47653783 3.84968218 7.99402678 5.43407585 8.125 8.25 C6.6875 11.5625 6.6875 11.5625 5.125 14.25 C4.135 14.25 3.145 14.25 2.125 14.25 C2.125 17.22 2.125 20.19 2.125 23.25 C3.445 23.25 4.765 23.25 6.125 23.25 C7.115 26.715 7.115 26.715 8.125 30.25 C12.42572413 31.2274373 14.27997282 31.23453016 18.125 29.25 C18.95 29.45625 19.775 29.6625 20.625 29.875 C23.23589415 30.55488395 23.23589415 30.55488395 25.4375 28.6875 C27.55804017 25.62449754 27.19974227 23.912371 27.125 20.25 C28.1875 17.4375 28.1875 17.4375 30.125 15.25 C33.53977198 14.31869855 35.98541488 13.97280362 39.4375 14.8125 C41.9972819 16.99305495 42.48610864 18.99165408 43.125 22.25 C42.25956339 25.42326755 41.45255853 26.92244147 39.125 29.25 C37.84625 29.353125 36.5675 29.45625 35.25 29.5625 C31.81475558 29.90665017 31.25399032 30.13044799 28.5625 32.625 C28.088125 33.49125 27.61375 34.3575 27.125 35.25 C27.455 36.24 27.785 37.23 28.125 38.25 C27.795 38.848125 27.465 39.44625 27.125 40.0625 C25.66273657 43.26120126 25.93709787 44.96579998 27.125 48.25 C29.41039003 49.72074143 31.5066093 50.39307213 34.125 51.25 C34.125 52.57 34.125 53.89 34.125 55.25 C36.765 55.25 39.405 55.25 42.125 55.25 C42.393125 54.63125 42.66125 54.0125 42.9375 53.375 C44.125 51.25 44.125 51.25 47.125 49.25 C53.22706897 49.46793103 53.22706897 49.46793103 56.0625 51.9375 C57.46317538 54.98602877 57.6092732 56.92926952 57.125 60.25 C55.5625 62.625 55.5625 62.625 53.125 64.25 C49.625 64.75 49.625 64.75 46.125 64.25 C44.79166667 62.91666667 43.45833333 61.58333333 42.125 60.25 C39.42765262 59.59783671 36.91083407 59.43572227 34.125 59.25 C34.08375 59.848125 34.0425 60.44625 34 61.0625 C33.125 63.25 33.125 63.25 30.125 64.6875 C26.9763362 65.92652637 26.9763362 65.92652637 26.125 68.5625 C26.125 71.79952862 26.94076561 74.25458359 28.125 77.25 C27.63 77.70375 27.135 78.1575 26.625 78.625 C24.89890663 80.12635519 24.89890663 80.12635519 25.125 82.25 C28.425 83.9 31.725 85.55 35.125 87.25 C35.62 85.27 35.62 85.27 36.125 83.25 C38.4375 81.8125 38.4375 81.8125 41.125 81.25 C43.4375 82.375 43.4375 82.375 45.125 84.25 C45.125 85.57 45.125 86.89 45.125 88.25 C46.053125 88.188125 46.98125 88.12625 47.9375 88.0625 C51.125 88.25 51.125 88.25 53 89.3125 C54.74473477 92.31732099 54.43335443 94.85810131 54.125 98.25 C50.41951522 101.95548478 44.45410343 100.73537531 39.45239258 100.76953125 C31.15899237 100.62220635 25.22015995 98.67295685 18.125 94.25 C17.795 97.55 17.465 100.85 17.125 104.25 C5.61185847 108.14415081 -4.12242467 110.12568141 -15.875 105.25 C-18.14282863 101.52428153 -17.90382164 98.50119173 -17.875 94.25 C-18.56980469 94.683125 -19.26460937 95.11625 -19.98046875 95.5625 C-29.85166242 100.96726003 -40.73888189 102.09183384 -51.875 100.25 C-53.875 98.25 -53.875 98.25 -54.1875 94.8125 C-53.875 91.25 -53.875 91.25 -52.75 89.3125 C-50.089973 87.80515137 -47.87293795 88.05013747 -44.875 88.25 C-44.813125 87.46625 -44.75125 86.6825 -44.6875 85.875 C-43.875 83.25 -43.875 83.25 -41.5625 81.75 C-38.875 81.25 -38.875 81.25 -36.5625 82.4375 C-34.875 84.25 -34.875 84.25 -34.875 87.25 C-31.575 85.6 -28.275 83.95 -24.875 82.25 C-25.535 80.93 -26.195 79.61 -26.875 78.25 C-27.205 77.26 -27.535 76.27 -27.875 75.25 C-27.545 74.63125 -27.215 74.0125 -26.875 73.375 C-25.70731165 71.26417494 -25.70731165 71.26417494 -25.8125 68.75 C-27.45380694 64.88810132 -30.16594669 64.07080799 -33.875 62.25 C-33.875 61.26 -33.875 60.27 -33.875 59.25 C-39.50377155 59.38391829 -39.50377155 59.38391829 -43.9375 62.3125 C-45.875 64.25 -45.875 64.25 -49.375 64.75 C-52.875 64.25 -52.875 64.25 -55.3125 62.625 C-57.37291771 59.49316508 -57.5517545 57.93455227 -56.875 54.25 C-54.8125 51.3125 -54.8125 51.3125 -51.875 49.25 C-48.25 49.25 -48.25 49.25 -44.875 50.25 C-44.400625 50.745 -43.92625 51.24 -43.4375 51.75 C-40.78497235 54.29642654 -37.44839666 53.95709863 -33.875 54.25 C-33.83375 53.63125 -33.7925 53.0125 -33.75 52.375 C-33.46125 51.67375 -33.1725 50.9725 -32.875 50.25 C-29.8125 49 -29.8125 49 -26.875 48.25 C-25.82463521 43.73343141 -26.05600938 41.45641581 -27.875 37.25 C-27.545 36.26 -27.215 35.27 -26.875 34.25 C-28.61826701 31.99828011 -29.95049109 30.43229753 -32.81640625 29.8671875 C-33.51636719 29.80789062 -34.21632813 29.74859375 -34.9375 29.6875 C-38.875 29.25 -38.875 29.25 -40.8125 28 C-42.22399329 25.67518752 -42.68066 23.97075998 -42.875 21.25 C-42.13171516 18.34443198 -41.52311344 16.77809243 -39.1875 14.875 C-35.73165814 13.94098869 -33.31055907 14.31302934 -29.875 15.25 C-27.37492526 18.07266503 -26.84594071 19.5380473 -27 23.3125 C-27.18387009 26.44229597 -27.18387009 26.44229597 -24.625 28.6875 C-22.10657199 30.51265426 -22.10657199 30.51265426 -19.9375 29.875 C-19.256875 29.66875 -18.57625 29.4625 -17.875 29.25 C-15.875 29.91666667 -13.875 30.58333333 -11.875 31.25 C-9.5874024 30.97359986 -9.5874024 30.97359986 -7.875 30.25 C-7.215 27.94 -6.555 25.63 -5.875 23.25 C-4.555 23.25 -3.235 23.25 -1.875 23.25 C-1.875 20.28 -1.875 17.31 -1.875 14.25 C-3.195 13.92 -4.515 13.59 -5.875 13.25 C-8.20970437 6.98316195 -8.20970437 6.98316195 -6.5625 3.375 C-4.092 0.264 -4.092 0.264 0 0 Z M-0.875 4.25 C-1.535 4.91 -2.195 5.57 -2.875 6.25 C-2.5564823 8.35820797 -2.5564823 8.35820797 -1.875 10.25 C-0.225 9.92 1.425 9.59 3.125 9.25 C2.85823796 7.26508358 2.85823796 7.26508358 2.125 5.25 C1.135 4.92 0.145 4.59 -0.875 4.25 Z M-36.875 19.25 C-37.205 20.57 -37.535 21.89 -37.875 23.25 C-35.895 24.24 -35.895 24.24 -33.875 25.25 C-33.215 24.59 -32.555 23.93 -31.875 23.25 C-32.1935177 21.14179203 -32.1935177 21.14179203 -32.875 19.25 C-34.195 19.25 -35.515 19.25 -36.875 19.25 Z M33.125 19.25 C32.795 20.57 32.465 21.89 32.125 23.25 C34.105 24.24 34.105 24.24 36.125 25.25 C36.785 24.59 37.445 23.93 38.125 23.25 C37.8064823 21.14179203 37.8064823 21.14179203 37.125 19.25 C35.805 19.25 34.485 19.25 33.125 19.25 Z M-2.875 27.25 C-3.019375 28.178125 -3.16375 29.10625 -3.3125 30.0625 C-5.07505519 33.65811259 -5.59839214 33.93240393 -9.1875 35.25 C-12.38843487 36.14316409 -13.65367863 36.30871791 -16.9375 35.4375 C-17.576875 35.045625 -18.21625 34.65375 -18.875 34.25 C-20.60280266 35.22022023 -20.60280266 35.22022023 -21.875 37.25 C-21.61381527 39.20888547 -21.34715962 41.16766095 -21.0234375 43.1171875 C-20.76069452 46.89238928 -21.93632407 49.01887344 -23.875 52.25 C-26.5625 53.6875 -26.5625 53.6875 -28.875 54.25 C-28.875 56.23 -28.875 58.21 -28.875 60.25 C-26.895 60.58 -24.915 60.91 -22.875 61.25 C-20.8087003 66.96271093 -20.8743291 71.28654233 -21.875 77.25 C-21.215 77.25 -20.555 77.25 -19.875 77.25 C-17.47788952 74.65546227 -17.47788952 74.65546227 -15.875 71.25 C-16.51399423 68.22929999 -17.5066375 65.98672501 -18.875 63.25 C-19.55702796 55.98248892 -19.67810318 49.11141406 -14.875 43.25 C-10.32043903 39.05224796 -5.46416692 37.43745265 0.66796875 37.1171875 C6.06631514 37.40899001 9.79503977 39.15647715 13.9375 42.5625 C18.73484996 48.4563871 19.58557066 52.92333358 19.4375 60.41015625 C19.06113108 63.83040882 17.73840702 66.243196 16.125 69.25 C16.9518414 72.4821982 18.26494296 74.45991444 20.125 77.25 C20.785 77.25 21.445 77.25 22.125 77.25 C22.02960938 76.68152344 21.93421875 76.11304688 21.8359375 75.52734375 C21.05963642 70.12031645 21.26612099 66.38925372 23.125 61.25 C26.095 60.755 26.095 60.755 29.125 60.25 C29.125 58.27 29.125 56.29 29.125 54.25 C28.361875 54.064375 27.59875 53.87875 26.8125 53.6875 C23.7401466 52.04414818 22.77158187 50.50908596 21.55078125 47.26953125 C20.81048816 43.75823281 21.44946876 40.75048007 22.125 37.25 C20.50805196 35.49348469 20.50805196 35.49348469 18.125 34.25 C16.7328125 34.745 16.7328125 34.745 15.3125 35.25 C12.125 36.25 12.125 36.25 8.375 35.25 C5.125 33.25 5.125 33.25 3.6875 30.0625 C3.501875 29.134375 3.31625 28.20625 3.125 27.25 C1.145 27.25 -0.835 27.25 -2.875 27.25 Z M-12.6875 46.8125 C-15.76984943 50.81257159 -16.17081907 55.31701721 -15.875 60.25 C-14.37549227 64.61934877 -14.37549227 64.61934877 -10.875 67.25 C-9.885 66.26 -8.895 65.27 -7.875 64.25 C-8.535 63.26 -9.195 62.27 -9.875 61.25 C-10.7121159 56.54452748 -10.5441347 53.22328684 -7.8125 49.25 C-4.27555558 46.84186763 -2.14936594 46.25 2.125 46.25 C6.14019063 47.76516628 7.72868353 48.6555253 10.125 52.25 C10.390625 54.37109375 10.390625 54.37109375 10.375 56.6875 C10.38015625 57.44933594 10.3853125 58.21117188 10.390625 58.99609375 C10.0997292 61.46443018 9.35475656 63.107686 8.125 65.25 C9.445 65.91 10.765 66.57 12.125 67.25 C15.31357853 64.06142147 15.84911707 60.8925576 16.18359375 56.55859375 C16.07376332 52.23127474 14.67568113 48.88096162 11.69140625 45.7421875 C7.3397895 41.94401826 3.9274243 40.9337926 -1.8203125 41.0390625 C-6.49195174 41.51866045 -9.3011096 43.72712208 -12.6875 46.8125 Z M-5.3125 52.375 C-7.11284957 55.16245748 -7.11284957 55.16245748 -6.9375 58.375 C-6.08077206 61.36866538 -6.08077206 61.36866538 -3.6875 63.25 C-0.85311861 64.5270887 -0.85311861 64.5270887 2.3125 63.625 C5.3754359 62.42020643 5.3754359 62.42020643 7.125 59.25 C6.93266941 56.17271059 6.5967187 53.99481901 4.9375 51.375 C1.03365173 48.95192176 -1.94223231 49.43681791 -5.3125 52.375 Z M-50.875 54.25 C-51.205 55.9 -51.535 57.55 -51.875 59.25 C-50.555 59.58 -49.235 59.91 -47.875 60.25 C-46.76663577 58.36683841 -46.76663577 58.36683841 -45.875 56.25 C-46.205 55.59 -46.535 54.93 -46.875 54.25 C-48.195 54.25 -49.515 54.25 -50.875 54.25 Z M47.125 54.25 C46.795 55.24 46.465 56.23 46.125 57.25 C47.115 58.735 47.115 58.735 48.125 60.25 C50.10991642 59.98323796 50.10991642 59.98323796 52.125 59.25 C52.455 58.26 52.785 57.27 53.125 56.25 C52.465 55.59 51.805 54.93 51.125 54.25 C49.805 54.25 48.485 54.25 47.125 54.25 Z M-11.6875 73.01953125 C-14.35357248 76.02460864 -16.66725121 78.89181243 -18.6875 82.375 C-22.58680838 87.4998053 -28.56245003 91.19411192 -35 92.125 C-35.94875 92.16625 -36.8975 92.2075 -37.875 92.25 C-38.205 91.26 -38.535 90.27 -38.875 89.25 C-39.205 89.91 -39.535 90.57 -39.875 91.25 C-41.94140625 91.6640625 -41.94140625 91.6640625 -44.4375 91.875 C-45.26378906 91.94976562 -46.09007812 92.02453125 -46.94140625 92.1015625 C-47.89853516 92.17503906 -47.89853516 92.17503906 -48.875 92.25 C-48.875 93.57 -48.875 94.89 -48.875 96.25 C-38.24572674 97.11966781 -31.0739654 96.23661381 -21.765625 90.87890625 C-18.875 89.25 -18.875 89.25 -14.875 88.25 C-14.215 92.54 -13.555 96.83 -12.875 101.25 C-2.79115029 103.97263942 3.19978615 104.51805822 13.125 101.25 C13.785 96.96 14.445 92.67 15.125 88.25 C24.76785714 92 24.76785714 92 28.75 94.5 C34.80693172 97.71695959 42.48395846 96.54014259 49.125 96.25 C49.125 94.93 49.125 93.61 49.125 92.25 C48.49851562 92.20101562 47.87203125 92.15203125 47.2265625 92.1015625 C46.40929687 92.02679688 45.59203125 91.95203125 44.75 91.875 C43.93789062 91.80539063 43.12578125 91.73578125 42.2890625 91.6640625 C40.125 91.25 40.125 91.25 38.125 89.25 C38.125 90.24 38.125 91.23 38.125 92.25 C29.70379003 91.02756629 22.67951065 87.88115531 17.37109375 80.96484375 C16.39226169 79.43398108 15.4317289 77.89122354 14.4921875 76.3359375 C12.13639784 72.74167556 9.16573251 69.83515628 4.9453125 68.625 C4.34460938 68.50125 3.74390625 68.3775 3.125 68.25 C3.39381752 69.77119093 3.66525616 71.29191853 3.9375 72.8125 C4.10765625 73.80894531 4.2778125 74.80539063 4.453125 75.83203125 C5.0991706 79.33845061 5.0991706 79.33845061 6.171875 83.07421875 C8.81314788 92.98577404 8.81314788 92.98577404 6.7578125 96.76171875 C4.97363955 98.52797831 3.26172507 99.9394073 1.125 101.25 C-2.73767818 99.6763163 -5.32278735 97.54641777 -7.875 94.25 C-7.77734375 90.8671875 -7.77734375 90.8671875 -6.8125 87.125 C-6.4911964 85.79841674 -6.17089281 84.4715909 -5.8515625 83.14453125 C-5.68430664 82.49049316 -5.51705078 81.83645508 -5.34472656 81.16259766 C-4.66638594 78.40058081 -4.17435862 75.61375373 -3.6875 72.8125 C-3.44966797 71.48412109 -3.44966797 71.48412109 -3.20703125 70.12890625 C-3.09746094 69.50886719 -2.98789062 68.88882813 -2.875 68.25 C-6.29540208 68.25 -9.36518171 70.75226792 -11.6875 73.01953125 Z M-0.875 78.25 C-1.40751766 80.16345327 -1.92559483 82.0809295 -2.4375 84 C-2.72753906 85.06734375 -3.01757812 86.1346875 -3.31640625 87.234375 C-3.8478142 90.10323468 -4.0058529 91.59495406 -2.875 94.25 C-0.8912233 95.53436734 -0.8912233 95.53436734 1.125 96.25 C2.86014172 94.69224157 2.86014172 94.69224157 4.125 92.25 C3.83382693 88.70958531 3.83382693 88.70958531 2.8125 85 C2.50699219 83.73671875 2.20148438 82.4734375 1.88671875 81.171875 C1.63535156 80.20765625 1.38398437 79.2434375 1.125 78.25 C0.465 78.25 -0.195 78.25 -0.875 78.25 Z M-39.875 86.25 C-38.875 89.25 -38.875 89.25 -38.875 89.25 Z M39.125 86.25 C40.125 89.25 40.125 89.25 40.125 89.25 Z " fill="#0DCD71" transform="translate(63.875,9.75)"/>
</svg>
