<?xml version="1.0" encoding="UTF-8"?>
<svg version="1.1" xmlns="http://www.w3.org/2000/svg" width="128" height="128">
<path d="M0 0 C2.64 0 5.28 0 8 0 C8.2475 1.8871875 8.2475 1.8871875 8.5 3.8125 C9.15356799 6.4314403 9.56254936 7.65585878 11.703125 9.33984375 C13.89868618 10.31611428 15.59759158 10.86208396 18 11 C21.49726521 9.36547907 21.49726521 9.36547907 24 7 C26.46800047 8.15173355 28.04783565 9.04783565 30 11 C29.7150691 13.75433205 28.93541229 15.08534804 27.25 17.3125 C25.62829731 20.08819836 25.62829731 20.08819836 26.8125 23.6875 C29.11468242 27.17366194 29.42147614 27.49934459 33.1875 28.4375 C34.445625 28.623125 35.70375 28.80875 37 29 C37 31.64 37 34.28 37 37 C35.1128125 37.2475 35.1128125 37.2475 33.1875 37.5 C30.54174888 38.15554261 29.3400108 38.55887812 27.66015625 40.73828125 C26.70638525 42.9118967 26.13714822 44.62733581 26 47 C27.78468339 49.77287937 27.78468339 49.77287937 30 52 C29.91911632 54.75004514 29.26262441 55.70586067 27.4375 57.75 C26.963125 58.1625 26.48875 58.575 26 59 C21.17857143 57.125 21.17857143 57.125 19.125 55.6875 C16.77050889 54.7213413 16.77050889 54.7213413 13.375 55.875 C9.80024195 58.12577358 9.50139702 58.38462933 8.5625 62.1875 C8.376875 63.445625 8.19125 64.70375 8 66 C5.36 66 2.72 66 0 66 C-0.226875 64.72125 -0.45375 63.4425 -0.6875 62.125 C-1.16100084 59.93067868 -1.16100084 59.93067868 -2 58 C-4.48313064 56.40311361 -4.48313064 56.40311361 -7 56 C-6.67 54.68 -6.34 53.36 -6 52 C-2.535 51.505 -2.535 51.505 1 51 C1 50.34 1 49.68 1 49 C1.99580078 48.85304688 1.99580078 48.85304688 3.01171875 48.703125 C8.31410626 47.80520244 12.22925834 47.11353636 16 43 C19.03876373 38.38946192 19.78560573 34.38086115 19 29 C17.28271412 24.30005971 15.13393334 21.79040501 11 19 C5.59797374 17.19932458 1.51864804 17.34541033 -3.625 19.5625 C-6.36939016 21.28007751 -8.09547341 23.25792001 -10.0625 25.8125 C-11.51171875 27.6484375 -11.51171875 27.6484375 -13 29 C-16.375 28.9375 -16.375 28.9375 -19 28 C-19.625 26.3125 -19.625 26.3125 -20 24 C-19.608125 23.21625 -19.21625 22.4325 -18.8125 21.625 C-18.544375 20.75875 -18.27625 19.8925 -18 19 C-19.7628112 15.68819268 -19.7628112 15.68819268 -22 13 C-20.84826645 10.53199953 -19.95216435 8.95216435 -18 7 C-15.24566795 7.2849309 -13.91465196 8.06458771 -11.6875 9.75 C-8.91180164 11.37170269 -8.91180164 11.37170269 -5.3125 10.1875 C-1.82633806 7.88531758 -1.50065541 7.57852386 -0.5625 3.8125 C-0.376875 2.554375 -0.19125 1.29625 0 0 Z " fill="#19B69D" transform="translate(56,15)"/>
<path d="M0 0 C1.27974087 1.06955474 2.52936315 2.17595713 3.75 3.3125 C4.78447266 4.26769531 4.78447266 4.26769531 5.83984375 5.2421875 C14.66439228 14.21463349 17.70463777 25.4717508 17.875 37.75 C18.26890876 47.80571224 22.25458205 55.29893205 27.98046875 63.51171875 C29.75 66.3125 29.75 66.3125 29.75 69.5 C28.59903707 72.73708324 27.78357194 73.75237729 24.75 75.3125 C23.43 75.3125 22.11 75.3125 20.75 75.3125 C21.059375 76.9521875 21.059375 76.9521875 21.375 78.625 C21.75 82.3125 21.75 82.3125 19.75 85.3125 C19.915 86.1375 20.08 86.9625 20.25 87.8125 C20.415 88.6375 20.58 89.4625 20.75 90.3125 C20.09 91.3025 19.43 92.2925 18.75 93.3125 C18.47879046 95.65747789 18.47879046 95.65747789 18.4375 98.1875 C18.11863179 102.01951274 17.86447699 103.15668409 15.5 106.375 C10.66622837 109.78061183 5.68190729 109.44646153 -0.0625 109.375 C-0.75537109 109.37048828 -1.44824219 109.36597656 -2.16210938 109.36132812 C-3.85811068 109.34963156 -5.55406703 109.33169924 -7.25 109.3125 C-7.45496094 110.01117188 -7.65992187 110.70984375 -7.87109375 111.4296875 C-8.14050781 112.33976562 -8.40992187 113.24984375 -8.6875 114.1875 C-8.95433594 115.09242187 -9.22117187 115.99734375 -9.49609375 116.9296875 C-10.25 119.3125 -10.25 119.3125 -11.25 121.3125 C-12.57 121.3125 -13.89 121.3125 -15.25 121.3125 C-14.42812739 116.92917943 -13.34845718 112.63309823 -12.25 108.3125 C-13.08144531 108.11914062 -13.91289063 107.92578125 -14.76953125 107.7265625 C-15.85621094 107.46617188 -16.94289062 107.20578125 -18.0625 106.9375 C-19.14144531 106.68226562 -20.22039062 106.42703125 -21.33203125 106.1640625 C-24.25 105.3125 -24.25 105.3125 -27.25 103.3125 C-27.25 102.3225 -27.25 101.3325 -27.25 100.3125 C-22.80208986 100.82969885 -18.64475274 101.7326647 -14.3125 102.875 C-5.99541024 104.85296218 4.44209241 105.93382453 12.75 103.3125 C13.63898948 98.4345282 13.63898948 98.4345282 13.125 93.5625 C12.939375 92.44875 12.939375 92.44875 12.75 91.3125 C14.1875 89.5 14.1875 89.5 15.75 88.3125 C15.234375 87.714375 14.71875 87.11625 14.1875 86.5 C13.713125 85.778125 13.23875 85.05625 12.75 84.3125 C13.245 82.8275 13.245 82.8275 13.75 81.3125 C15.8125 80.625 15.8125 80.625 17.75 80.3125 C17.255 76.3525 17.255 76.3525 16.75 72.3125 C19.39 71.3225 22.03 70.3325 24.75 69.3125 C24.37488281 68.56226562 23.99976562 67.81203125 23.61328125 67.0390625 C22.53957714 64.89165429 21.47368228 62.74033033 20.4140625 60.5859375 C19.42646109 58.64319107 18.39471018 56.72035029 17.2734375 54.8515625 C13.89560535 49.06381501 13.27587516 43.86144061 13.0546875 37.28417969 C12.6362812 25.66239414 8.97513848 14.72457345 0.75 6.3125 C-9.49188966 -1.7527017 -21.6207717 -2.99570692 -34.25 -1.6875 C-45.6571351 0.57206031 -57.13484126 5.63512733 -64.3125 15.0625 C-68.47503024 21.4622558 -69.71248995 28.94149593 -71.25 36.3125 C-72.57 35.6525 -73.89 34.9925 -75.25 34.3125 C-74.76789583 24.67041666 -71.84167701 15.00695876 -65.0234375 7.89453125 C-48.11476885 -7.18919298 -19.76397684 -13.671036 0 0 Z " fill="#19B79E" transform="translate(91.25,6.6875)"/>
<path d="M0 0 C1.2065625 0.0309375 1.2065625 0.0309375 2.4375 0.0625 C2.7675 2.0425 3.0975 4.0225 3.4375 6.0625 C4.71625 6.26875 5.995 6.475 7.3125 6.6875 C8.03179687 6.80351563 8.75109375 6.91953125 9.4921875 7.0390625 C10.45511719 7.05066406 10.45511719 7.05066406 11.4375 7.0625 C12.0975 6.4025 12.7575 5.7425 13.4375 5.0625 C15.5625 5.4375 15.5625 5.4375 17.4375 6.0625 C18.0625 7.9375 18.0625 7.9375 18.4375 10.0625 C17.7775 10.7225 17.1175 11.3825 16.4375 12.0625 C16.41374074 14.0556567 16.41374074 14.0556567 16.8125 16.1875 C17.01875 17.46625 17.225 18.745 17.4375 20.0625 C19.4175 20.3925 21.3975 20.7225 23.4375 21.0625 C23.480221 22.72861905 23.47813832 24.39632885 23.4375 26.0625 C22.4375 27.0625 22.4375 27.0625 19.875 27.125 C19.070625 27.104375 18.26625 27.08375 17.4375 27.0625 C16.26462428 33.74781992 16.26462428 33.74781992 18.4375 40.0625 C17.7775 40.7225 17.1175 41.3825 16.4375 42.0625 C13.60792171 41.69973355 11.14665709 40.96555236 8.4375 40.0625 C5.79945411 40.45647335 5.79945411 40.45647335 3.4375 41.0625 C3.1075 43.3725 2.7775 45.6825 2.4375 48.0625 C0.7875 48.0625 -0.8625 48.0625 -2.5625 48.0625 C-2.35753906 48.65417969 -2.15257813 49.24585938 -1.94140625 49.85546875 C2.53240614 62.97722469 2.45976131 73.36122013 -3.578125 86.2265625 C-4.5625 87.875 -4.5625 87.875 -6.5625 90.0625 C-7.8825 90.0625 -9.2025 90.0625 -10.5625 90.0625 C-9.96731777 86.28174012 -8.85555023 83.37239388 -7.0625 80 C-1.89054864 70.24245224 -3.43770643 62.26734388 -6.5625 52.0625 C-6.84867188 51.09699219 -7.13484375 50.13148437 -7.4296875 49.13671875 C-8.13101537 46.77558158 -8.84209342 44.41787187 -9.5625 42.0625 C-7.9125 42.3925 -6.2625 42.7225 -4.5625 43.0625 C-7.16564689 41.32706874 -8.54944043 40.45128188 -11.5625 40.0625 C-12.2225 40.7225 -12.8825 41.3825 -13.5625 42.0625 C-15.6875 41.6875 -15.6875 41.6875 -17.5625 41.0625 C-18.1875 39.3125 -18.1875 39.3125 -18.5625 37.0625 C-18.211875 36.423125 -17.86125 35.78375 -17.5 35.125 C-16.30755369 33.02798022 -16.30755369 33.02798022 -17.0625 30.4375 C-19.06971276 27.25941313 -20.99221026 26.91626494 -24.5625 26.0625 C-24.5625 24.4125 -24.5625 22.7625 -24.5625 21.0625 C-21.0975 20.5675 -21.0975 20.5675 -17.5625 20.0625 C-16.36261955 14.78050407 -16.36261955 14.78050407 -18.5625 10.0625 C-18.375 7.9375 -18.375 7.9375 -17.5625 6.0625 C-16.5725 5.7325 -15.5825 5.4025 -14.5625 5.0625 C-13.5725 5.7225 -12.5825 6.3825 -11.5625 7.0625 C-9.49339407 7.08999478 -9.49339407 7.08999478 -7.375 6.6875 C-5.4878125 6.378125 -5.4878125 6.378125 -3.5625 6.0625 C-3.583125 5.258125 -3.60375 4.45375 -3.625 3.625 C-3.54067676 0.16774696 -3.45725304 0.08432324 0 0 Z M-10.5625 17.0625 C-12.44662896 20.17540871 -12.56540727 21.89969308 -12.5 25.5625 C-11.3675714 29.79023342 -9.96248114 31.35796955 -6.5625 34.0625 C-3.64939956 35.70578743 -1.97236499 36.07122053 1.375 36 C5.41946086 34.76189974 7.38032991 32.97747613 10.4375 30.0625 C12.04382723 26.84984554 11.91681944 23.54728188 11.4375 20.0625 C9.42247111 16.31037724 7.98283858 14.42605905 4.4375 12.0625 C-2.23095242 10.85582766 -6.04767982 12.10720956 -10.5625 17.0625 Z " fill="#19B69D" transform="translate(31.5625,37.9375)"/>
</svg>
