<?xml version="1.0" encoding="UTF-8"?>
<svg version="1.1" xmlns="http://www.w3.org/2000/svg" width="64" height="64">
<path d="M0 0 C1.19463867 -0.00630432 2.38927734 -0.01260864 3.62011719 -0.019104 C4.91594727 -0.01505554 6.21177734 -0.01100708 7.546875 -0.00683594 C8.88444082 -0.00818272 10.22200617 -0.01012336 11.55957031 -0.01263428 C14.36397966 -0.01558494 17.16826169 -0.01128987 19.97265625 -0.00195312 C23.57092422 0.00944153 27.16889386 0.00288172 30.76715088 -0.00909805 C33.52948258 -0.0163183 36.29174333 -0.014028 39.05407715 -0.00884247 C41.02726433 -0.00685568 43.00045426 -0.01293935 44.97363281 -0.019104 C46.16827148 -0.01279968 47.36291016 -0.00649536 48.59375 0 C50.17687988 0.00238678 50.17687988 0.00238678 51.79199219 0.00482178 C54.296875 0.25878906 54.296875 0.25878906 56.296875 2.25878906 C56.55084229 4.76367188 56.55084229 4.76367188 56.55566406 7.96191406 C56.56196838 9.15655273 56.56827271 10.35119141 56.57476807 11.58203125 C56.5707196 12.87786133 56.56667114 14.17369141 56.5625 15.50878906 C56.56384678 16.84635489 56.56578743 18.18392023 56.56829834 19.52148438 C56.571249 22.32589373 56.56695394 25.13017575 56.55761719 27.93457031 C56.54622254 31.53283828 56.55278234 35.13080792 56.56476212 38.72906494 C56.57198236 41.49139665 56.56969206 44.25365739 56.56450653 47.01599121 C56.56251975 48.9891784 56.56860342 50.96236832 56.57476807 52.93554688 C56.56531158 54.72750488 56.56531158 54.72750488 56.55566406 56.55566406 C56.55407288 57.61108398 56.55248169 58.66650391 56.55084229 59.75390625 C56.296875 62.25878906 56.296875 62.25878906 54.296875 64.25878906 C51.79199219 64.51275635 51.79199219 64.51275635 48.59375 64.51757812 C47.39911133 64.52388245 46.20447266 64.53018677 44.97363281 64.53668213 C43.67780273 64.53263367 42.38197266 64.52858521 41.046875 64.52441406 C39.70930918 64.52576085 38.37174383 64.52770149 37.03417969 64.5302124 C34.22977034 64.53316306 31.42548831 64.528868 28.62109375 64.51953125 C25.02282578 64.5081366 21.42485614 64.5146964 17.82659912 64.52667618 C15.06426742 64.53389642 12.30200667 64.53160613 9.53967285 64.52642059 C7.56648567 64.52443381 5.59329574 64.53051748 3.62011719 64.53668213 C2.42547852 64.53037781 1.23083984 64.52407349 0 64.51757812 C-1.05541992 64.51598694 -2.11083984 64.51439575 -3.19824219 64.51275635 C-5.703125 64.25878906 -5.703125 64.25878906 -7.703125 62.25878906 C-7.95709229 59.75390625 -7.95709229 59.75390625 -7.96191406 56.55566406 C-7.96821838 55.36102539 -7.97452271 54.16638672 -7.98101807 52.93554688 C-7.9769696 51.6397168 -7.97292114 50.34388672 -7.96875 49.00878906 C-7.97009678 47.67122324 -7.97203743 46.33365789 -7.97454834 44.99609375 C-7.977499 42.1916844 -7.97320394 39.38740238 -7.96386719 36.58300781 C-7.95247254 32.98473984 -7.95903234 29.3867702 -7.97101212 25.78851318 C-7.97823236 23.02618148 -7.97594206 20.26392073 -7.97075653 17.50158691 C-7.96876975 15.52839973 -7.97485342 13.55520981 -7.98101807 11.58203125 C-7.97471375 10.38739258 -7.96840942 9.19275391 -7.96191406 7.96191406 C-7.96032288 6.90649414 -7.95873169 5.85107422 -7.95709229 4.76367188 C-7.4364896 -0.37103956 -4.3907541 0.00661965 0 0 Z M-3.703125 5.25878906 C-3.703125 8.55878906 -3.703125 11.85878906 -3.703125 15.25878906 C14.776875 15.25878906 33.256875 15.25878906 52.296875 15.25878906 C52.296875 11.95878906 52.296875 8.65878906 52.296875 5.25878906 C50.61675158 3.57866565 48.54600308 4.13131567 46.2421875 4.12939453 C45.16437012 4.12624237 44.08655273 4.12309021 42.97607422 4.11984253 C41.80318848 4.12186676 40.63030273 4.12389099 39.421875 4.12597656 C38.2270752 4.12501984 37.03227539 4.12406311 35.80126953 4.12307739 C33.2692052 4.12239535 30.73713912 4.12425129 28.20507812 4.12841797 C24.3137624 4.13376585 20.42256211 4.12847374 16.53125 4.12207031 C14.07812474 4.12273109 11.62499956 4.12401224 9.171875 4.12597656 C7.99898926 4.12395233 6.82610352 4.1219281 5.61767578 4.11984253 C4.00094971 4.12457077 4.00094971 4.12457077 2.3515625 4.12939453 C0.92046143 4.13058792 0.92046143 4.13058792 -0.53955078 4.13180542 C-2.68300389 4.01718059 -2.68300389 4.01718059 -3.703125 5.25878906 Z M-3.703125 19.25878906 C-3.72375 25.83816406 -3.744375 32.41753906 -3.765625 39.19628906 C-3.774729 41.27546631 -3.78383301 43.35464355 -3.79321289 45.49682617 C-3.79613201 47.13492773 -3.79868058 48.77303 -3.80078125 50.41113281 C-3.80589722 51.26968872 -3.81101318 52.12824463 -3.81628418 53.01281738 C-3.8165941 55.09514958 -3.76554676 57.17739266 -3.703125 59.25878906 C-2.02300158 60.93891248 0.04774692 60.38626245 2.3515625 60.38818359 C3.42937988 60.39133575 4.50719727 60.39448792 5.61767578 60.3977356 C6.79056152 60.39571136 7.96344727 60.39368713 9.171875 60.39160156 C10.3666748 60.39255829 11.56147461 60.39351501 12.79248047 60.39450073 C15.3245448 60.39518277 17.85661088 60.39332684 20.38867188 60.38916016 C24.2799876 60.38381227 28.17118789 60.38910439 32.0625 60.39550781 C34.51562526 60.39484704 36.96875044 60.39356588 39.421875 60.39160156 C40.59476074 60.39362579 41.76764648 60.39565002 42.97607422 60.3977356 C44.59280029 60.39300735 44.59280029 60.39300735 46.2421875 60.38818359 C47.67328857 60.3869902 47.67328857 60.3869902 49.13330078 60.38577271 C51.27675389 60.50039754 51.27675389 60.50039754 52.296875 59.25878906 C52.38555136 56.30195676 52.41215027 53.36793692 52.39453125 50.41113281 C52.39352417 49.62581177 52.39251709 48.84049072 52.39147949 48.03137207 C52.38623138 45.08632963 52.37227023 42.14130794 52.359375 39.19628906 C52.33875 32.61691406 52.318125 26.03753906 52.296875 19.25878906 C33.816875 19.25878906 15.336875 19.25878906 -3.703125 19.25878906 Z " fill="#ED4961" transform="translate(7.703125,-0.2587890625)"/>
<path d="M0 0 C2.0625 0.4375 2.0625 0.4375 4 1 C3.10941604 7.4515352 0.75603426 12.87069757 -1.8125 18.8125 C-2.25142578 19.87404297 -2.69035156 20.93558594 -3.14257812 22.02929688 C-3.57634766 23.03669922 -4.01011719 24.04410156 -4.45703125 25.08203125 C-4.84866455 26.00218018 -5.24029785 26.9223291 -5.64379883 27.87036133 C-7 30 -7 30 -9.15893555 30.80737305 C-9.76648682 30.87093994 -10.37403809 30.93450684 -11 31 C-12.08837943 28.25008314 -12.01464235 27.04698466 -11.11962891 24.17504883 C-10.65991699 23.11310303 -10.20020508 22.05115723 -9.7265625 20.95703125 C-9.2315625 19.80138672 -8.7365625 18.64574219 -8.2265625 17.45507812 C-7.69804687 16.25302734 -7.16953125 15.05097656 -6.625 13.8125 C-6.09796541 12.58701508 -5.57191235 11.36110755 -5.046875 10.13476562 C-1.1770705 1.1770705 -1.1770705 1.1770705 0 0 Z " fill="#EF4A62" transform="translate(36,24)"/>
<path d="M0 0 C6.38520354 0.15963009 9.66008365 3.78124883 14 8 C13.63420588 10.80235493 13.10665987 11.89355648 11.07421875 13.921875 C10.28660156 14.52515625 9.49898437 15.1284375 8.6875 15.75 C7.51767578 16.67039062 7.51767578 16.67039062 6.32421875 17.609375 C4 19 4 19 0 19 C0.41421969 14.16743695 2.46413986 12.17320782 6 9 C5.01 8.2575 4.02 7.515 3 6.75 C1.3125 5.484375 1.3125 5.484375 0 4 C0 2.68 0 1.36 0 0 Z " fill="#EE4A61" transform="translate(41,30)"/>
<path d="M0 0 C-0.41421969 4.83256305 -2.46413986 6.82679218 -6 10 C-5.01 10.7425 -4.02 11.485 -3 12.25 C-1.3125 13.515625 -1.3125 13.515625 0 15 C0 16.32 0 17.64 0 19 C-6.38520354 18.84036991 -9.66008365 15.21875117 -14 11 C-13.63420588 8.19764507 -13.10665987 7.10644352 -11.07421875 5.078125 C-10.28660156 4.47484375 -9.49898437 3.8715625 -8.6875 3.25 C-7.51767578 2.32960937 -7.51767578 2.32960937 -6.32421875 1.390625 C-4 0 -4 0 0 0 Z " fill="#EE4A61" transform="translate(23,30)"/>
<path d="M0 0 C1.93166016 0.01740234 1.93166016 0.01740234 3.90234375 0.03515625 C5.19269531 0.04417969 6.48304687 0.05320312 7.8125 0.0625 C8.81152344 0.07410156 9.81054688 0.08570313 10.83984375 0.09765625 C11.40234375 2.03515625 11.40234375 2.03515625 11.83984375 4.09765625 C10.83984375 5.09765625 10.83984375 5.09765625 7.6796875 5.1953125 C5.74802734 5.17791016 5.74802734 5.17791016 3.77734375 5.16015625 C2.48699219 5.15113281 1.19664063 5.14210938 -0.1328125 5.1328125 C-1.13183594 5.12121094 -2.13085938 5.10960937 -3.16015625 5.09765625 C-3.72265625 3.16015625 -3.72265625 3.16015625 -4.16015625 1.09765625 C-3.16015625 0.09765625 -3.16015625 0.09765625 0 0 Z " fill="#ED4A62" transform="translate(45.16015625,6.90234375)"/>
<path d="M0 0 C1.98 0.495 1.98 0.495 4 1 C3.67 2.32 3.34 3.64 3 5 C1.68 4.67 0.36 4.34 -1 4 C-0.67 2.68 -0.34 1.36 0 0 Z " fill="#EC4962" transform="translate(23,7)"/>
<path d="M0 0 C1.98 0.495 1.98 0.495 4 1 C3.67 2.32 3.34 3.64 3 5 C1.68 4.67 0.36 4.34 -1 4 C-0.67 2.68 -0.34 1.36 0 0 Z " fill="#EC4962" transform="translate(8,7)"/>
<path d="M0 0 C0.99 0.33 1.98 0.66 3 1 C2.67 2.32 2.34 3.64 2 5 C1.01 4.67 0.02 4.34 -1 4 C-0.67 2.68 -0.34 1.36 0 0 Z " fill="#EE4A61" transform="translate(16,7)"/>
</svg>
